%TF.GenerationSoftware,KiCad,Pcbnew,(5.1.8)-1*%
%TF.CreationDate,2022-04-17T09:09:35+02:00*%
%TF.ProjectId,UPDI-Adapter_V1.0,55504449-2d41-4646-9170-7465725f5631,rev?*%
%TF.SameCoordinates,Original*%
%TF.FileFunction,Soldermask,Bot*%
%TF.FilePolarity,Negative*%
%FSLAX46Y46*%
G04 Gerber Fmt 4.6, Leading zero omitted, Abs format (unit mm)*
G04 Created by KiCad (PCBNEW (5.1.8)-1) date 2022-04-17 09:09:35*
%MOMM*%
%LPD*%
G01*
G04 APERTURE LIST*
%ADD10C,1.700000*%
%ADD11O,1.740000X2.190000*%
%ADD12C,0.100000*%
%ADD13R,1.000000X1.500000*%
%ADD14C,2.700000*%
%ADD15R,1.600000X1.600000*%
%ADD16O,1.600000X1.600000*%
G04 APERTURE END LIST*
%TO.C,J1*%
G36*
G01*
X39790000Y-51400000D02*
X39790000Y-50200000D01*
G75*
G02*
X40040000Y-49950000I250000J0D01*
G01*
X41240000Y-49950000D01*
G75*
G02*
X41490000Y-50200000I0J-250000D01*
G01*
X41490000Y-51400000D01*
G75*
G02*
X41240000Y-51650000I-250000J0D01*
G01*
X40040000Y-51650000D01*
G75*
G02*
X39790000Y-51400000I0J250000D01*
G01*
G37*
D10*
X40640000Y-53340000D03*
X40640000Y-55880000D03*
X40640000Y-58420000D03*
X40640000Y-60960000D03*
X43180000Y-50800000D03*
X43180000Y-53340000D03*
X43180000Y-55880000D03*
X43180000Y-58420000D03*
X43180000Y-60960000D03*
%TD*%
%TO.C,J2*%
G36*
G01*
X58820000Y-64345001D02*
X58820000Y-62654999D01*
G75*
G02*
X59069999Y-62405000I249999J0D01*
G01*
X60310001Y-62405000D01*
G75*
G02*
X60560000Y-62654999I0J-249999D01*
G01*
X60560000Y-64345001D01*
G75*
G02*
X60310001Y-64595000I-249999J0D01*
G01*
X59069999Y-64595000D01*
G75*
G02*
X58820000Y-64345001I0J249999D01*
G01*
G37*
D11*
X62230000Y-63500000D03*
X64770000Y-63500000D03*
X67310000Y-63500000D03*
%TD*%
D12*
%TO.C,JP1*%
G36*
X43210000Y-47510602D02*
G01*
X43234534Y-47510602D01*
X43283365Y-47515412D01*
X43331490Y-47524984D01*
X43378445Y-47539228D01*
X43423778Y-47558005D01*
X43467051Y-47581136D01*
X43507850Y-47608396D01*
X43545779Y-47639524D01*
X43580476Y-47674221D01*
X43611604Y-47712150D01*
X43638864Y-47752949D01*
X43661995Y-47796222D01*
X43680772Y-47841555D01*
X43695016Y-47888510D01*
X43704588Y-47936635D01*
X43709398Y-47985466D01*
X43709398Y-48010000D01*
X43710000Y-48010000D01*
X43710000Y-48510000D01*
X43709398Y-48510000D01*
X43709398Y-48534534D01*
X43704588Y-48583365D01*
X43695016Y-48631490D01*
X43680772Y-48678445D01*
X43661995Y-48723778D01*
X43638864Y-48767051D01*
X43611604Y-48807850D01*
X43580476Y-48845779D01*
X43545779Y-48880476D01*
X43507850Y-48911604D01*
X43467051Y-48938864D01*
X43423778Y-48961995D01*
X43378445Y-48980772D01*
X43331490Y-48995016D01*
X43283365Y-49004588D01*
X43234534Y-49009398D01*
X43210000Y-49009398D01*
X43210000Y-49010000D01*
X42660000Y-49010000D01*
X42660000Y-47510000D01*
X43210000Y-47510000D01*
X43210000Y-47510602D01*
G37*
D13*
X41910000Y-48260000D03*
D12*
G36*
X41160000Y-49010000D02*
G01*
X40610000Y-49010000D01*
X40610000Y-49009398D01*
X40585466Y-49009398D01*
X40536635Y-49004588D01*
X40488510Y-48995016D01*
X40441555Y-48980772D01*
X40396222Y-48961995D01*
X40352949Y-48938864D01*
X40312150Y-48911604D01*
X40274221Y-48880476D01*
X40239524Y-48845779D01*
X40208396Y-48807850D01*
X40181136Y-48767051D01*
X40158005Y-48723778D01*
X40139228Y-48678445D01*
X40124984Y-48631490D01*
X40115412Y-48583365D01*
X40110602Y-48534534D01*
X40110602Y-48510000D01*
X40110000Y-48510000D01*
X40110000Y-48010000D01*
X40110602Y-48010000D01*
X40110602Y-47985466D01*
X40115412Y-47936635D01*
X40124984Y-47888510D01*
X40139228Y-47841555D01*
X40158005Y-47796222D01*
X40181136Y-47752949D01*
X40208396Y-47712150D01*
X40239524Y-47674221D01*
X40274221Y-47639524D01*
X40312150Y-47608396D01*
X40352949Y-47581136D01*
X40396222Y-47558005D01*
X40441555Y-47539228D01*
X40488510Y-47524984D01*
X40536635Y-47515412D01*
X40585466Y-47510602D01*
X40610000Y-47510602D01*
X40610000Y-47510000D01*
X41160000Y-47510000D01*
X41160000Y-49010000D01*
G37*
%TD*%
%TO.C,JP2*%
G36*
X41160000Y-65520000D02*
G01*
X40610000Y-65520000D01*
X40610000Y-65519398D01*
X40585466Y-65519398D01*
X40536635Y-65514588D01*
X40488510Y-65505016D01*
X40441555Y-65490772D01*
X40396222Y-65471995D01*
X40352949Y-65448864D01*
X40312150Y-65421604D01*
X40274221Y-65390476D01*
X40239524Y-65355779D01*
X40208396Y-65317850D01*
X40181136Y-65277051D01*
X40158005Y-65233778D01*
X40139228Y-65188445D01*
X40124984Y-65141490D01*
X40115412Y-65093365D01*
X40110602Y-65044534D01*
X40110602Y-65020000D01*
X40110000Y-65020000D01*
X40110000Y-64520000D01*
X40110602Y-64520000D01*
X40110602Y-64495466D01*
X40115412Y-64446635D01*
X40124984Y-64398510D01*
X40139228Y-64351555D01*
X40158005Y-64306222D01*
X40181136Y-64262949D01*
X40208396Y-64222150D01*
X40239524Y-64184221D01*
X40274221Y-64149524D01*
X40312150Y-64118396D01*
X40352949Y-64091136D01*
X40396222Y-64068005D01*
X40441555Y-64049228D01*
X40488510Y-64034984D01*
X40536635Y-64025412D01*
X40585466Y-64020602D01*
X40610000Y-64020602D01*
X40610000Y-64020000D01*
X41160000Y-64020000D01*
X41160000Y-65520000D01*
G37*
D13*
X41910000Y-64770000D03*
D12*
G36*
X43210000Y-64020602D02*
G01*
X43234534Y-64020602D01*
X43283365Y-64025412D01*
X43331490Y-64034984D01*
X43378445Y-64049228D01*
X43423778Y-64068005D01*
X43467051Y-64091136D01*
X43507850Y-64118396D01*
X43545779Y-64149524D01*
X43580476Y-64184221D01*
X43611604Y-64222150D01*
X43638864Y-64262949D01*
X43661995Y-64306222D01*
X43680772Y-64351555D01*
X43695016Y-64398510D01*
X43704588Y-64446635D01*
X43709398Y-64495466D01*
X43709398Y-64520000D01*
X43710000Y-64520000D01*
X43710000Y-65020000D01*
X43709398Y-65020000D01*
X43709398Y-65044534D01*
X43704588Y-65093365D01*
X43695016Y-65141490D01*
X43680772Y-65188445D01*
X43661995Y-65233778D01*
X43638864Y-65277051D01*
X43611604Y-65317850D01*
X43580476Y-65355779D01*
X43545779Y-65390476D01*
X43507850Y-65421604D01*
X43467051Y-65448864D01*
X43423778Y-65471995D01*
X43378445Y-65490772D01*
X43331490Y-65505016D01*
X43283365Y-65514588D01*
X43234534Y-65519398D01*
X43210000Y-65519398D01*
X43210000Y-65520000D01*
X42660000Y-65520000D01*
X42660000Y-64020000D01*
X43210000Y-64020000D01*
X43210000Y-64020602D01*
G37*
%TD*%
D14*
%TO.C,H1*%
X58420000Y-46990000D03*
%TD*%
D15*
%TO.C,SW1*%
X48260000Y-54610000D03*
D16*
X55880000Y-57150000D03*
X48260000Y-57150000D03*
X55880000Y-54610000D03*
%TD*%
D14*
%TO.C,H2*%
X50546000Y-64770000D03*
%TD*%
M02*
