%TF.GenerationSoftware,KiCad,Pcbnew,(5.1.8)-1*%
%TF.CreationDate,2022-04-17T09:09:35+02:00*%
%TF.ProjectId,UPDI-Adapter_V1.0,55504449-2d41-4646-9170-7465725f5631,rev?*%
%TF.SameCoordinates,Original*%
%TF.FileFunction,Legend,Top*%
%TF.FilePolarity,Positive*%
%FSLAX46Y46*%
G04 Gerber Fmt 4.6, Leading zero omitted, Abs format (unit mm)*
G04 Created by KiCad (PCBNEW (5.1.8)-1) date 2022-04-17 09:09:35*
%MOMM*%
%LPD*%
G01*
G04 APERTURE LIST*
%ADD10C,0.150000*%
%ADD11C,0.010000*%
%ADD12C,0.120000*%
G04 APERTURE END LIST*
D10*
X57769333Y-56766666D02*
X57769333Y-57266666D01*
X57736000Y-57366666D01*
X57669333Y-57433333D01*
X57569333Y-57466666D01*
X57502666Y-57466666D01*
X58069333Y-56833333D02*
X58102666Y-56800000D01*
X58169333Y-56766666D01*
X58336000Y-56766666D01*
X58402666Y-56800000D01*
X58436000Y-56833333D01*
X58469333Y-56900000D01*
X58469333Y-56966666D01*
X58436000Y-57066666D01*
X58036000Y-57466666D01*
X58469333Y-57466666D01*
X58769333Y-57200000D02*
X59302666Y-57200000D01*
X59536000Y-56766666D02*
X59769333Y-57466666D01*
X60002666Y-56766666D01*
X60636000Y-57400000D02*
X60602666Y-57433333D01*
X60502666Y-57466666D01*
X60436000Y-57466666D01*
X60336000Y-57433333D01*
X60269333Y-57366666D01*
X60236000Y-57300000D01*
X60202666Y-57166666D01*
X60202666Y-57066666D01*
X60236000Y-56933333D01*
X60269333Y-56866666D01*
X60336000Y-56800000D01*
X60436000Y-56766666D01*
X60502666Y-56766666D01*
X60602666Y-56800000D01*
X60636000Y-56833333D01*
X61336000Y-57400000D02*
X61302666Y-57433333D01*
X61202666Y-57466666D01*
X61136000Y-57466666D01*
X61036000Y-57433333D01*
X60969333Y-57366666D01*
X60936000Y-57300000D01*
X60902666Y-57166666D01*
X60902666Y-57066666D01*
X60936000Y-56933333D01*
X60969333Y-56866666D01*
X61036000Y-56800000D01*
X61136000Y-56766666D01*
X61202666Y-56766666D01*
X61302666Y-56800000D01*
X61336000Y-56833333D01*
X57769333Y-53972666D02*
X57769333Y-54472666D01*
X57736000Y-54572666D01*
X57669333Y-54639333D01*
X57569333Y-54672666D01*
X57502666Y-54672666D01*
X58469333Y-54672666D02*
X58069333Y-54672666D01*
X58269333Y-54672666D02*
X58269333Y-53972666D01*
X58202666Y-54072666D01*
X58136000Y-54139333D01*
X58069333Y-54172666D01*
X58769333Y-54406000D02*
X59302666Y-54406000D01*
X59536000Y-53972666D02*
X59769333Y-54672666D01*
X60002666Y-53972666D01*
X60636000Y-54606000D02*
X60602666Y-54639333D01*
X60502666Y-54672666D01*
X60436000Y-54672666D01*
X60336000Y-54639333D01*
X60269333Y-54572666D01*
X60236000Y-54506000D01*
X60202666Y-54372666D01*
X60202666Y-54272666D01*
X60236000Y-54139333D01*
X60269333Y-54072666D01*
X60336000Y-54006000D01*
X60436000Y-53972666D01*
X60502666Y-53972666D01*
X60602666Y-54006000D01*
X60636000Y-54039333D01*
X61336000Y-54606000D02*
X61302666Y-54639333D01*
X61202666Y-54672666D01*
X61136000Y-54672666D01*
X61036000Y-54639333D01*
X60969333Y-54572666D01*
X60936000Y-54506000D01*
X60902666Y-54372666D01*
X60902666Y-54272666D01*
X60936000Y-54139333D01*
X60969333Y-54072666D01*
X61036000Y-54006000D01*
X61136000Y-53972666D01*
X61202666Y-53972666D01*
X61302666Y-54006000D01*
X61336000Y-54039333D01*
X65086666Y-59679666D02*
X64753333Y-59913000D01*
X65086666Y-60079666D02*
X64386666Y-60079666D01*
X64386666Y-59813000D01*
X64420000Y-59746333D01*
X64453333Y-59713000D01*
X64520000Y-59679666D01*
X64620000Y-59679666D01*
X64686666Y-59713000D01*
X64720000Y-59746333D01*
X64753333Y-59813000D01*
X64753333Y-60079666D01*
X64386666Y-59446333D02*
X65086666Y-58979666D01*
X64386666Y-58979666D02*
X65086666Y-59446333D01*
X61846666Y-60096333D02*
X61846666Y-59696333D01*
X62546666Y-59896333D02*
X61846666Y-59896333D01*
X61846666Y-59529666D02*
X62546666Y-59063000D01*
X61846666Y-59063000D02*
X62546666Y-59529666D01*
X59433666Y-60242333D02*
X60133666Y-60009000D01*
X59433666Y-59775666D01*
X60067000Y-59142333D02*
X60100333Y-59175666D01*
X60133666Y-59275666D01*
X60133666Y-59342333D01*
X60100333Y-59442333D01*
X60033666Y-59509000D01*
X59967000Y-59542333D01*
X59833666Y-59575666D01*
X59733666Y-59575666D01*
X59600333Y-59542333D01*
X59533666Y-59509000D01*
X59467000Y-59442333D01*
X59433666Y-59342333D01*
X59433666Y-59275666D01*
X59467000Y-59175666D01*
X59500333Y-59142333D01*
X60067000Y-58442333D02*
X60100333Y-58475666D01*
X60133666Y-58575666D01*
X60133666Y-58642333D01*
X60100333Y-58742333D01*
X60033666Y-58809000D01*
X59967000Y-58842333D01*
X59833666Y-58875666D01*
X59733666Y-58875666D01*
X59600333Y-58842333D01*
X59533666Y-58809000D01*
X59467000Y-58742333D01*
X59433666Y-58642333D01*
X59433666Y-58575666D01*
X59467000Y-58475666D01*
X59500333Y-58442333D01*
X66960000Y-59842333D02*
X66926666Y-59909000D01*
X66926666Y-60009000D01*
X66960000Y-60109000D01*
X67026666Y-60175666D01*
X67093333Y-60209000D01*
X67226666Y-60242333D01*
X67326666Y-60242333D01*
X67460000Y-60209000D01*
X67526666Y-60175666D01*
X67593333Y-60109000D01*
X67626666Y-60009000D01*
X67626666Y-59942333D01*
X67593333Y-59842333D01*
X67560000Y-59809000D01*
X67326666Y-59809000D01*
X67326666Y-59942333D01*
X67626666Y-59509000D02*
X66926666Y-59509000D01*
X67626666Y-59109000D01*
X66926666Y-59109000D01*
X67626666Y-58775666D02*
X66926666Y-58775666D01*
X66926666Y-58609000D01*
X66960000Y-58509000D01*
X67026666Y-58442333D01*
X67093333Y-58409000D01*
X67226666Y-58375666D01*
X67326666Y-58375666D01*
X67460000Y-58409000D01*
X67526666Y-58442333D01*
X67593333Y-58509000D01*
X67626666Y-58609000D01*
X67626666Y-58775666D01*
X78333666Y-58705000D02*
X78267000Y-58671666D01*
X78167000Y-58671666D01*
X78067000Y-58705000D01*
X78000333Y-58771666D01*
X77967000Y-58838333D01*
X77933666Y-58971666D01*
X77933666Y-59071666D01*
X77967000Y-59205000D01*
X78000333Y-59271666D01*
X78067000Y-59338333D01*
X78167000Y-59371666D01*
X78233666Y-59371666D01*
X78333666Y-59338333D01*
X78367000Y-59305000D01*
X78367000Y-59071666D01*
X78233666Y-59071666D01*
X78667000Y-59371666D02*
X78667000Y-58671666D01*
X79067000Y-59371666D01*
X79067000Y-58671666D01*
X79400333Y-59371666D02*
X79400333Y-58671666D01*
X79567000Y-58671666D01*
X79667000Y-58705000D01*
X79733666Y-58771666D01*
X79767000Y-58838333D01*
X79800333Y-58971666D01*
X79800333Y-59071666D01*
X79767000Y-59205000D01*
X79733666Y-59271666D01*
X79667000Y-59338333D01*
X79567000Y-59371666D01*
X79400333Y-59371666D01*
X77933666Y-52448666D02*
X78167000Y-53148666D01*
X78400333Y-52448666D01*
X79033666Y-53082000D02*
X79000333Y-53115333D01*
X78900333Y-53148666D01*
X78833666Y-53148666D01*
X78733666Y-53115333D01*
X78667000Y-53048666D01*
X78633666Y-52982000D01*
X78600333Y-52848666D01*
X78600333Y-52748666D01*
X78633666Y-52615333D01*
X78667000Y-52548666D01*
X78733666Y-52482000D01*
X78833666Y-52448666D01*
X78900333Y-52448666D01*
X79000333Y-52482000D01*
X79033666Y-52515333D01*
X79733666Y-53082000D02*
X79700333Y-53115333D01*
X79600333Y-53148666D01*
X79533666Y-53148666D01*
X79433666Y-53115333D01*
X79367000Y-53048666D01*
X79333666Y-52982000D01*
X79300333Y-52848666D01*
X79300333Y-52748666D01*
X79333666Y-52615333D01*
X79367000Y-52548666D01*
X79433666Y-52482000D01*
X79533666Y-52448666D01*
X79600333Y-52448666D01*
X79700333Y-52482000D01*
X79733666Y-52515333D01*
D11*
%TO.C,G\u002A\u002A\u002A*%
G36*
X63860746Y-47249276D02*
G01*
X64351875Y-47250304D01*
X64921557Y-47251946D01*
X65575610Y-47254088D01*
X65638589Y-47254301D01*
X69301178Y-47266679D01*
X69489917Y-47374820D01*
X69715010Y-47549733D01*
X69867417Y-47765521D01*
X69946272Y-48007642D01*
X69950709Y-48261553D01*
X69879861Y-48512712D01*
X69732864Y-48746578D01*
X69580464Y-48895224D01*
X69406178Y-49035607D01*
X65373589Y-49047666D01*
X64636425Y-49049387D01*
X63966430Y-49049959D01*
X63366244Y-49049403D01*
X62838507Y-49047740D01*
X62385856Y-49044989D01*
X62010933Y-49041172D01*
X61716377Y-49036308D01*
X61504827Y-49030419D01*
X61378921Y-49023525D01*
X61341000Y-49016325D01*
X61373752Y-48953573D01*
X61382010Y-48947580D01*
X61432893Y-48942639D01*
X61567369Y-48936247D01*
X61778331Y-48928595D01*
X62058675Y-48919872D01*
X62401292Y-48910270D01*
X62799076Y-48899978D01*
X63244922Y-48889187D01*
X63731723Y-48878088D01*
X64252372Y-48866870D01*
X64799763Y-48855725D01*
X64840492Y-48854921D01*
X65566878Y-48840654D01*
X66208047Y-48828077D01*
X66769475Y-48816972D01*
X67256640Y-48807124D01*
X67675019Y-48798316D01*
X68030088Y-48790332D01*
X68327324Y-48782956D01*
X68572205Y-48775972D01*
X68770207Y-48769164D01*
X68926807Y-48762315D01*
X69047483Y-48755210D01*
X69137711Y-48747631D01*
X69202968Y-48739364D01*
X69248731Y-48730191D01*
X69280478Y-48719897D01*
X69303684Y-48708265D01*
X69323827Y-48695080D01*
X69346384Y-48680124D01*
X69351727Y-48676866D01*
X69518450Y-48528925D01*
X69616123Y-48337624D01*
X69639815Y-48123770D01*
X69584596Y-47908173D01*
X69549480Y-47842253D01*
X69528080Y-47803509D01*
X69510544Y-47768672D01*
X69492245Y-47737441D01*
X69468556Y-47709516D01*
X69434851Y-47684597D01*
X69386504Y-47662385D01*
X69318888Y-47642580D01*
X69227377Y-47624882D01*
X69107345Y-47608990D01*
X68954165Y-47594605D01*
X68763212Y-47581428D01*
X68529858Y-47569158D01*
X68249477Y-47557495D01*
X67917443Y-47546139D01*
X67529130Y-47534791D01*
X67079911Y-47523151D01*
X66565160Y-47510918D01*
X65980251Y-47497793D01*
X65320557Y-47483477D01*
X64581451Y-47467668D01*
X63758309Y-47450067D01*
X63370732Y-47441730D01*
X62978244Y-47433008D01*
X62667059Y-47425145D01*
X62427782Y-47417367D01*
X62251018Y-47408900D01*
X62127370Y-47398968D01*
X62047442Y-47386799D01*
X62001838Y-47371617D01*
X61981163Y-47352648D01*
X61976022Y-47329118D01*
X61976000Y-47326785D01*
X61978419Y-47311457D01*
X61989557Y-47298125D01*
X62015233Y-47286675D01*
X62061266Y-47276990D01*
X62133477Y-47268957D01*
X62237684Y-47262459D01*
X62379707Y-47257383D01*
X62565366Y-47253611D01*
X62800480Y-47251030D01*
X63090868Y-47249524D01*
X63442350Y-47248977D01*
X63860746Y-47249276D01*
G37*
X63860746Y-47249276D02*
X64351875Y-47250304D01*
X64921557Y-47251946D01*
X65575610Y-47254088D01*
X65638589Y-47254301D01*
X69301178Y-47266679D01*
X69489917Y-47374820D01*
X69715010Y-47549733D01*
X69867417Y-47765521D01*
X69946272Y-48007642D01*
X69950709Y-48261553D01*
X69879861Y-48512712D01*
X69732864Y-48746578D01*
X69580464Y-48895224D01*
X69406178Y-49035607D01*
X65373589Y-49047666D01*
X64636425Y-49049387D01*
X63966430Y-49049959D01*
X63366244Y-49049403D01*
X62838507Y-49047740D01*
X62385856Y-49044989D01*
X62010933Y-49041172D01*
X61716377Y-49036308D01*
X61504827Y-49030419D01*
X61378921Y-49023525D01*
X61341000Y-49016325D01*
X61373752Y-48953573D01*
X61382010Y-48947580D01*
X61432893Y-48942639D01*
X61567369Y-48936247D01*
X61778331Y-48928595D01*
X62058675Y-48919872D01*
X62401292Y-48910270D01*
X62799076Y-48899978D01*
X63244922Y-48889187D01*
X63731723Y-48878088D01*
X64252372Y-48866870D01*
X64799763Y-48855725D01*
X64840492Y-48854921D01*
X65566878Y-48840654D01*
X66208047Y-48828077D01*
X66769475Y-48816972D01*
X67256640Y-48807124D01*
X67675019Y-48798316D01*
X68030088Y-48790332D01*
X68327324Y-48782956D01*
X68572205Y-48775972D01*
X68770207Y-48769164D01*
X68926807Y-48762315D01*
X69047483Y-48755210D01*
X69137711Y-48747631D01*
X69202968Y-48739364D01*
X69248731Y-48730191D01*
X69280478Y-48719897D01*
X69303684Y-48708265D01*
X69323827Y-48695080D01*
X69346384Y-48680124D01*
X69351727Y-48676866D01*
X69518450Y-48528925D01*
X69616123Y-48337624D01*
X69639815Y-48123770D01*
X69584596Y-47908173D01*
X69549480Y-47842253D01*
X69528080Y-47803509D01*
X69510544Y-47768672D01*
X69492245Y-47737441D01*
X69468556Y-47709516D01*
X69434851Y-47684597D01*
X69386504Y-47662385D01*
X69318888Y-47642580D01*
X69227377Y-47624882D01*
X69107345Y-47608990D01*
X68954165Y-47594605D01*
X68763212Y-47581428D01*
X68529858Y-47569158D01*
X68249477Y-47557495D01*
X67917443Y-47546139D01*
X67529130Y-47534791D01*
X67079911Y-47523151D01*
X66565160Y-47510918D01*
X65980251Y-47497793D01*
X65320557Y-47483477D01*
X64581451Y-47467668D01*
X63758309Y-47450067D01*
X63370732Y-47441730D01*
X62978244Y-47433008D01*
X62667059Y-47425145D01*
X62427782Y-47417367D01*
X62251018Y-47408900D01*
X62127370Y-47398968D01*
X62047442Y-47386799D01*
X62001838Y-47371617D01*
X61981163Y-47352648D01*
X61976022Y-47329118D01*
X61976000Y-47326785D01*
X61978419Y-47311457D01*
X61989557Y-47298125D01*
X62015233Y-47286675D01*
X62061266Y-47276990D01*
X62133477Y-47268957D01*
X62237684Y-47262459D01*
X62379707Y-47257383D01*
X62565366Y-47253611D01*
X62800480Y-47251030D01*
X63090868Y-47249524D01*
X63442350Y-47248977D01*
X63860746Y-47249276D01*
G36*
X63174574Y-47727213D02*
G01*
X63202065Y-47759148D01*
X63218966Y-47832622D01*
X63229162Y-47964203D01*
X63236303Y-48162482D01*
X63238420Y-48350425D01*
X63233629Y-48499048D01*
X63222928Y-48588836D01*
X63213624Y-48606410D01*
X62952775Y-48617815D01*
X62765185Y-48622580D01*
X62633577Y-48619778D01*
X62540675Y-48608482D01*
X62469205Y-48587767D01*
X62415503Y-48563618D01*
X62318689Y-48500814D01*
X62272895Y-48417155D01*
X62257082Y-48302807D01*
X62261633Y-48233817D01*
X62482681Y-48233817D01*
X62483511Y-48371795D01*
X62542868Y-48445643D01*
X62671904Y-48468594D01*
X62680594Y-48468643D01*
X62816929Y-48455709D01*
X62926329Y-48424312D01*
X62931481Y-48421690D01*
X63006004Y-48341202D01*
X63007936Y-48241428D01*
X62937895Y-48156650D01*
X62926579Y-48150115D01*
X62819151Y-48120255D01*
X62680523Y-48113487D01*
X62665776Y-48114502D01*
X62549146Y-48135455D01*
X62495693Y-48183934D01*
X62482681Y-48233817D01*
X62261633Y-48233817D01*
X62266981Y-48152746D01*
X62329477Y-48052298D01*
X62454998Y-47994140D01*
X62653973Y-47970948D01*
X62731472Y-47969714D01*
X62885822Y-47967548D01*
X62971570Y-47954842D01*
X63010820Y-47922282D01*
X63025676Y-47860558D01*
X63027540Y-47844982D01*
X63060574Y-47747700D01*
X63132607Y-47720250D01*
X63174574Y-47727213D01*
G37*
X63174574Y-47727213D02*
X63202065Y-47759148D01*
X63218966Y-47832622D01*
X63229162Y-47964203D01*
X63236303Y-48162482D01*
X63238420Y-48350425D01*
X63233629Y-48499048D01*
X63222928Y-48588836D01*
X63213624Y-48606410D01*
X62952775Y-48617815D01*
X62765185Y-48622580D01*
X62633577Y-48619778D01*
X62540675Y-48608482D01*
X62469205Y-48587767D01*
X62415503Y-48563618D01*
X62318689Y-48500814D01*
X62272895Y-48417155D01*
X62257082Y-48302807D01*
X62261633Y-48233817D01*
X62482681Y-48233817D01*
X62483511Y-48371795D01*
X62542868Y-48445643D01*
X62671904Y-48468594D01*
X62680594Y-48468643D01*
X62816929Y-48455709D01*
X62926329Y-48424312D01*
X62931481Y-48421690D01*
X63006004Y-48341202D01*
X63007936Y-48241428D01*
X62937895Y-48156650D01*
X62926579Y-48150115D01*
X62819151Y-48120255D01*
X62680523Y-48113487D01*
X62665776Y-48114502D01*
X62549146Y-48135455D01*
X62495693Y-48183934D01*
X62482681Y-48233817D01*
X62261633Y-48233817D01*
X62266981Y-48152746D01*
X62329477Y-48052298D01*
X62454998Y-47994140D01*
X62653973Y-47970948D01*
X62731472Y-47969714D01*
X62885822Y-47967548D01*
X62971570Y-47954842D01*
X63010820Y-47922282D01*
X63025676Y-47860558D01*
X63027540Y-47844982D01*
X63060574Y-47747700D01*
X63132607Y-47720250D01*
X63174574Y-47727213D01*
G36*
X65913435Y-47975115D02*
G01*
X66057398Y-47998832D01*
X66141832Y-48052137D01*
X66182193Y-48146301D01*
X66193936Y-48292598D01*
X66194214Y-48334167D01*
X66194214Y-48604714D01*
X66024125Y-48609337D01*
X65857059Y-48614718D01*
X65682754Y-48621496D01*
X65672607Y-48621938D01*
X65531039Y-48622852D01*
X65415324Y-48614855D01*
X65400464Y-48612434D01*
X65262886Y-48553735D01*
X65200550Y-48444713D01*
X65196703Y-48400607D01*
X65423143Y-48400607D01*
X65450321Y-48445822D01*
X65542405Y-48466136D01*
X65623540Y-48468643D01*
X65763833Y-48462649D01*
X65873042Y-48447648D01*
X65895422Y-48441212D01*
X65951989Y-48402991D01*
X65928755Y-48368656D01*
X65836625Y-48343461D01*
X65686502Y-48332658D01*
X65669930Y-48332572D01*
X65520399Y-48338801D01*
X65443841Y-48360629D01*
X65423143Y-48400607D01*
X65196703Y-48400607D01*
X65196357Y-48396649D01*
X65224890Y-48298541D01*
X65316480Y-48235299D01*
X65480114Y-48202930D01*
X65646946Y-48196500D01*
X65817719Y-48187578D01*
X65904309Y-48165704D01*
X65905398Y-48138220D01*
X65819669Y-48112467D01*
X65664851Y-48096710D01*
X65506761Y-48078805D01*
X65409560Y-48047602D01*
X65388928Y-48026411D01*
X65404795Y-47995107D01*
X65485435Y-47977000D01*
X65642205Y-47969983D01*
X65694487Y-47969714D01*
X65913435Y-47975115D01*
G37*
X65913435Y-47975115D02*
X66057398Y-47998832D01*
X66141832Y-48052137D01*
X66182193Y-48146301D01*
X66193936Y-48292598D01*
X66194214Y-48334167D01*
X66194214Y-48604714D01*
X66024125Y-48609337D01*
X65857059Y-48614718D01*
X65682754Y-48621496D01*
X65672607Y-48621938D01*
X65531039Y-48622852D01*
X65415324Y-48614855D01*
X65400464Y-48612434D01*
X65262886Y-48553735D01*
X65200550Y-48444713D01*
X65196703Y-48400607D01*
X65423143Y-48400607D01*
X65450321Y-48445822D01*
X65542405Y-48466136D01*
X65623540Y-48468643D01*
X65763833Y-48462649D01*
X65873042Y-48447648D01*
X65895422Y-48441212D01*
X65951989Y-48402991D01*
X65928755Y-48368656D01*
X65836625Y-48343461D01*
X65686502Y-48332658D01*
X65669930Y-48332572D01*
X65520399Y-48338801D01*
X65443841Y-48360629D01*
X65423143Y-48400607D01*
X65196703Y-48400607D01*
X65196357Y-48396649D01*
X65224890Y-48298541D01*
X65316480Y-48235299D01*
X65480114Y-48202930D01*
X65646946Y-48196500D01*
X65817719Y-48187578D01*
X65904309Y-48165704D01*
X65905398Y-48138220D01*
X65819669Y-48112467D01*
X65664851Y-48096710D01*
X65506761Y-48078805D01*
X65409560Y-48047602D01*
X65388928Y-48026411D01*
X65404795Y-47995107D01*
X65485435Y-47977000D01*
X65642205Y-47969983D01*
X65694487Y-47969714D01*
X65913435Y-47975115D01*
G36*
X68535021Y-47811339D02*
G01*
X68539561Y-47822304D01*
X68589313Y-47907730D01*
X68674123Y-47952751D01*
X68818314Y-47968410D01*
X68862726Y-47969020D01*
X68995002Y-47981322D01*
X69046486Y-48010324D01*
X69023080Y-48046020D01*
X68930687Y-48078404D01*
X68787345Y-48096817D01*
X68552785Y-48110526D01*
X68552785Y-48289585D01*
X68557250Y-48404197D01*
X68588103Y-48455125D01*
X68671530Y-48468213D01*
X68734214Y-48468643D01*
X68847825Y-48458583D01*
X68911016Y-48433453D01*
X68915643Y-48423286D01*
X68950727Y-48386143D01*
X69027044Y-48380732D01*
X69101190Y-48406141D01*
X69122440Y-48427638D01*
X69124375Y-48496761D01*
X69054186Y-48556884D01*
X68930423Y-48601603D01*
X68771639Y-48624515D01*
X68596386Y-48619217D01*
X68575464Y-48616430D01*
X68431847Y-48577254D01*
X68354668Y-48498880D01*
X68327113Y-48360628D01*
X68326000Y-48309629D01*
X68317064Y-48180443D01*
X68283080Y-48115093D01*
X68235285Y-48092644D01*
X68156102Y-48047126D01*
X68160472Y-47989463D01*
X68230388Y-47948590D01*
X68312861Y-47885191D01*
X68339535Y-47832141D01*
X68392791Y-47758069D01*
X68470889Y-47750499D01*
X68535021Y-47811339D01*
G37*
X68535021Y-47811339D02*
X68539561Y-47822304D01*
X68589313Y-47907730D01*
X68674123Y-47952751D01*
X68818314Y-47968410D01*
X68862726Y-47969020D01*
X68995002Y-47981322D01*
X69046486Y-48010324D01*
X69023080Y-48046020D01*
X68930687Y-48078404D01*
X68787345Y-48096817D01*
X68552785Y-48110526D01*
X68552785Y-48289585D01*
X68557250Y-48404197D01*
X68588103Y-48455125D01*
X68671530Y-48468213D01*
X68734214Y-48468643D01*
X68847825Y-48458583D01*
X68911016Y-48433453D01*
X68915643Y-48423286D01*
X68950727Y-48386143D01*
X69027044Y-48380732D01*
X69101190Y-48406141D01*
X69122440Y-48427638D01*
X69124375Y-48496761D01*
X69054186Y-48556884D01*
X68930423Y-48601603D01*
X68771639Y-48624515D01*
X68596386Y-48619217D01*
X68575464Y-48616430D01*
X68431847Y-48577254D01*
X68354668Y-48498880D01*
X68327113Y-48360628D01*
X68326000Y-48309629D01*
X68317064Y-48180443D01*
X68283080Y-48115093D01*
X68235285Y-48092644D01*
X68156102Y-48047126D01*
X68160472Y-47989463D01*
X68230388Y-47948590D01*
X68312861Y-47885191D01*
X68339535Y-47832141D01*
X68392791Y-47758069D01*
X68470889Y-47750499D01*
X68535021Y-47811339D01*
G36*
X64520990Y-47984457D02*
G01*
X64611624Y-48003394D01*
X64667002Y-48036603D01*
X64670733Y-48040213D01*
X64728423Y-48115436D01*
X64742785Y-48155806D01*
X64707967Y-48212472D01*
X64627637Y-48225856D01*
X64537982Y-48192103D01*
X64522078Y-48179322D01*
X64385012Y-48112890D01*
X64215023Y-48128996D01*
X64108286Y-48173562D01*
X64012989Y-48244978D01*
X63970564Y-48350912D01*
X63963128Y-48411687D01*
X63942124Y-48529668D01*
X63894314Y-48583847D01*
X63846779Y-48596556D01*
X63754940Y-48582747D01*
X63719471Y-48545793D01*
X63707729Y-48465452D01*
X63704985Y-48330972D01*
X63708334Y-48237026D01*
X63722250Y-47993543D01*
X64160465Y-47980852D01*
X64376728Y-47977656D01*
X64520990Y-47984457D01*
G37*
X64520990Y-47984457D02*
X64611624Y-48003394D01*
X64667002Y-48036603D01*
X64670733Y-48040213D01*
X64728423Y-48115436D01*
X64742785Y-48155806D01*
X64707967Y-48212472D01*
X64627637Y-48225856D01*
X64537982Y-48192103D01*
X64522078Y-48179322D01*
X64385012Y-48112890D01*
X64215023Y-48128996D01*
X64108286Y-48173562D01*
X64012989Y-48244978D01*
X63970564Y-48350912D01*
X63963128Y-48411687D01*
X63942124Y-48529668D01*
X63894314Y-48583847D01*
X63846779Y-48596556D01*
X63754940Y-48582747D01*
X63719471Y-48545793D01*
X63707729Y-48465452D01*
X63704985Y-48330972D01*
X63708334Y-48237026D01*
X63722250Y-47993543D01*
X64160465Y-47980852D01*
X64376728Y-47977656D01*
X64520990Y-47984457D01*
G36*
X67475074Y-47729704D02*
G01*
X67566613Y-47752506D01*
X67581883Y-47782423D01*
X67516157Y-47812576D01*
X67389469Y-47833643D01*
X67260201Y-47857653D01*
X67174860Y-47892732D01*
X67158459Y-47911013D01*
X67177064Y-47949577D01*
X67226843Y-47949074D01*
X67328036Y-47952137D01*
X67395497Y-47991906D01*
X67401607Y-48051362D01*
X67399312Y-48055358D01*
X67334111Y-48094470D01*
X67257430Y-48105786D01*
X67193988Y-48112629D01*
X67160953Y-48147932D01*
X67148486Y-48233858D01*
X67146714Y-48355250D01*
X67143770Y-48498124D01*
X67128213Y-48572516D01*
X67089952Y-48600627D01*
X67033321Y-48604714D01*
X66961817Y-48595519D01*
X66928804Y-48551339D01*
X66919551Y-48447283D01*
X66919234Y-48411947D01*
X66909434Y-48255412D01*
X66872007Y-48158030D01*
X66792789Y-48089246D01*
X66761178Y-48070942D01*
X66670464Y-48021172D01*
X66761178Y-47988419D01*
X66853904Y-47930824D01*
X66949134Y-47838600D01*
X67018385Y-47770564D01*
X67101225Y-47735104D01*
X67228818Y-47722111D01*
X67311992Y-47720892D01*
X67475074Y-47729704D01*
G37*
X67475074Y-47729704D02*
X67566613Y-47752506D01*
X67581883Y-47782423D01*
X67516157Y-47812576D01*
X67389469Y-47833643D01*
X67260201Y-47857653D01*
X67174860Y-47892732D01*
X67158459Y-47911013D01*
X67177064Y-47949577D01*
X67226843Y-47949074D01*
X67328036Y-47952137D01*
X67395497Y-47991906D01*
X67401607Y-48051362D01*
X67399312Y-48055358D01*
X67334111Y-48094470D01*
X67257430Y-48105786D01*
X67193988Y-48112629D01*
X67160953Y-48147932D01*
X67148486Y-48233858D01*
X67146714Y-48355250D01*
X67143770Y-48498124D01*
X67128213Y-48572516D01*
X67089952Y-48600627D01*
X67033321Y-48604714D01*
X66961817Y-48595519D01*
X66928804Y-48551339D01*
X66919551Y-48447283D01*
X66919234Y-48411947D01*
X66909434Y-48255412D01*
X66872007Y-48158030D01*
X66792789Y-48089246D01*
X66761178Y-48070942D01*
X66670464Y-48021172D01*
X66761178Y-47988419D01*
X66853904Y-47930824D01*
X66949134Y-47838600D01*
X67018385Y-47770564D01*
X67101225Y-47735104D01*
X67228818Y-47722111D01*
X67311992Y-47720892D01*
X67475074Y-47729704D01*
G36*
X63298290Y-45931475D02*
G01*
X63434630Y-45937584D01*
X63509763Y-45946645D01*
X63518143Y-45951245D01*
X63494730Y-45995219D01*
X63430255Y-46101228D01*
X63333364Y-46255427D01*
X63212702Y-46443968D01*
X63149992Y-46540888D01*
X62781841Y-47107929D01*
X61965567Y-47107929D01*
X62043769Y-46983197D01*
X62099103Y-46896268D01*
X62190832Y-46753571D01*
X62305894Y-46575378D01*
X62423182Y-46394355D01*
X62724393Y-45930245D01*
X63121268Y-45929444D01*
X63298290Y-45931475D01*
G37*
X63298290Y-45931475D02*
X63434630Y-45937584D01*
X63509763Y-45946645D01*
X63518143Y-45951245D01*
X63494730Y-45995219D01*
X63430255Y-46101228D01*
X63333364Y-46255427D01*
X63212702Y-46443968D01*
X63149992Y-46540888D01*
X62781841Y-47107929D01*
X61965567Y-47107929D01*
X62043769Y-46983197D01*
X62099103Y-46896268D01*
X62190832Y-46753571D01*
X62305894Y-46575378D01*
X62423182Y-46394355D01*
X62724393Y-45930245D01*
X63121268Y-45929444D01*
X63298290Y-45931475D01*
G36*
X63603497Y-45477468D02*
G01*
X64051318Y-45485306D01*
X64422966Y-45499559D01*
X64725658Y-45521201D01*
X64966608Y-45551204D01*
X65153033Y-45590542D01*
X65292149Y-45640187D01*
X65391170Y-45701114D01*
X65457314Y-45774295D01*
X65471782Y-45798705D01*
X65488678Y-45915372D01*
X65417520Y-46033244D01*
X65260919Y-46150510D01*
X65021486Y-46265359D01*
X64701831Y-46375980D01*
X64595375Y-46406766D01*
X64427166Y-46466036D01*
X64346361Y-46532536D01*
X64349724Y-46617168D01*
X64434019Y-46730835D01*
X64484141Y-46781531D01*
X64556522Y-46848272D01*
X64622004Y-46890555D01*
X64703284Y-46913959D01*
X64823060Y-46924065D01*
X65004031Y-46926454D01*
X65073784Y-46926500D01*
X65261073Y-46930143D01*
X65408716Y-46939947D01*
X65497226Y-46954225D01*
X65513857Y-46964577D01*
X65481105Y-47018105D01*
X65379350Y-47058384D01*
X65203345Y-47086235D01*
X64947840Y-47102475D01*
X64607587Y-47107923D01*
X64594979Y-47107929D01*
X63907155Y-47107929D01*
X63667292Y-46850194D01*
X63552504Y-46717109D01*
X63467654Y-46600166D01*
X63428432Y-46521416D01*
X63427428Y-46513071D01*
X63431921Y-46471759D01*
X63455880Y-46440175D01*
X63515030Y-46411699D01*
X63625094Y-46379709D01*
X63801795Y-46337583D01*
X63894134Y-46316530D01*
X64170683Y-46240098D01*
X64365180Y-46155817D01*
X64475385Y-46065426D01*
X64499058Y-45970663D01*
X64448078Y-45886572D01*
X64417585Y-45866648D01*
X64363704Y-45850240D01*
X64277305Y-45836804D01*
X64149256Y-45825794D01*
X63970427Y-45816668D01*
X63731686Y-45808879D01*
X63423902Y-45801883D01*
X63037946Y-45795137D01*
X62871982Y-45792572D01*
X61367140Y-45769893D01*
X61553365Y-45622482D01*
X61739590Y-45475072D01*
X63072288Y-45475072D01*
X63603497Y-45477468D01*
G37*
X63603497Y-45477468D02*
X64051318Y-45485306D01*
X64422966Y-45499559D01*
X64725658Y-45521201D01*
X64966608Y-45551204D01*
X65153033Y-45590542D01*
X65292149Y-45640187D01*
X65391170Y-45701114D01*
X65457314Y-45774295D01*
X65471782Y-45798705D01*
X65488678Y-45915372D01*
X65417520Y-46033244D01*
X65260919Y-46150510D01*
X65021486Y-46265359D01*
X64701831Y-46375980D01*
X64595375Y-46406766D01*
X64427166Y-46466036D01*
X64346361Y-46532536D01*
X64349724Y-46617168D01*
X64434019Y-46730835D01*
X64484141Y-46781531D01*
X64556522Y-46848272D01*
X64622004Y-46890555D01*
X64703284Y-46913959D01*
X64823060Y-46924065D01*
X65004031Y-46926454D01*
X65073784Y-46926500D01*
X65261073Y-46930143D01*
X65408716Y-46939947D01*
X65497226Y-46954225D01*
X65513857Y-46964577D01*
X65481105Y-47018105D01*
X65379350Y-47058384D01*
X65203345Y-47086235D01*
X64947840Y-47102475D01*
X64607587Y-47107923D01*
X64594979Y-47107929D01*
X63907155Y-47107929D01*
X63667292Y-46850194D01*
X63552504Y-46717109D01*
X63467654Y-46600166D01*
X63428432Y-46521416D01*
X63427428Y-46513071D01*
X63431921Y-46471759D01*
X63455880Y-46440175D01*
X63515030Y-46411699D01*
X63625094Y-46379709D01*
X63801795Y-46337583D01*
X63894134Y-46316530D01*
X64170683Y-46240098D01*
X64365180Y-46155817D01*
X64475385Y-46065426D01*
X64499058Y-45970663D01*
X64448078Y-45886572D01*
X64417585Y-45866648D01*
X64363704Y-45850240D01*
X64277305Y-45836804D01*
X64149256Y-45825794D01*
X63970427Y-45816668D01*
X63731686Y-45808879D01*
X63423902Y-45801883D01*
X63037946Y-45795137D01*
X62871982Y-45792572D01*
X61367140Y-45769893D01*
X61553365Y-45622482D01*
X61739590Y-45475072D01*
X63072288Y-45475072D01*
X63603497Y-45477468D01*
G36*
X68315720Y-45479476D02*
G01*
X68764262Y-45488056D01*
X69132403Y-45503231D01*
X69425206Y-45525372D01*
X69647732Y-45554854D01*
X69805043Y-45592047D01*
X69895194Y-45632516D01*
X70023518Y-45749458D01*
X70062542Y-45875102D01*
X70034635Y-45975511D01*
X69914877Y-46119900D01*
X69705412Y-46252512D01*
X69406182Y-46373370D01*
X69017129Y-46482496D01*
X68538193Y-46579913D01*
X68369358Y-46608073D01*
X68137232Y-46645334D01*
X67931557Y-46678912D01*
X67771968Y-46705563D01*
X67678095Y-46722041D01*
X67668321Y-46723956D01*
X67592111Y-46772850D01*
X67506280Y-46874158D01*
X67474199Y-46925300D01*
X67370791Y-47107929D01*
X66963931Y-47107929D01*
X66784481Y-47105867D01*
X66645462Y-47100347D01*
X66567147Y-47092362D01*
X66557071Y-47087947D01*
X66580397Y-47044880D01*
X66644645Y-46939568D01*
X66741219Y-46785774D01*
X66861526Y-46597263D01*
X66925297Y-46498305D01*
X67293522Y-45928643D01*
X67696368Y-45928643D01*
X67874843Y-45931457D01*
X68012789Y-45938987D01*
X68089834Y-45949868D01*
X68099214Y-45955659D01*
X68075344Y-46007124D01*
X68016736Y-46098301D01*
X68005224Y-46114671D01*
X67934063Y-46252947D01*
X67940694Y-46353660D01*
X68023903Y-46411022D01*
X68069095Y-46419584D01*
X68201809Y-46412002D01*
X68383799Y-46373390D01*
X68583340Y-46313560D01*
X68768707Y-46242321D01*
X68908174Y-46169483D01*
X68931060Y-46153036D01*
X69017015Y-46052256D01*
X69049921Y-45943232D01*
X69025700Y-45853720D01*
X68979969Y-45820103D01*
X68917927Y-45813164D01*
X68777013Y-45806822D01*
X68569069Y-45801310D01*
X68305937Y-45796858D01*
X67999458Y-45793699D01*
X67661473Y-45792065D01*
X67539879Y-45791897D01*
X66171535Y-45791222D01*
X66534393Y-45478478D01*
X67781714Y-45477119D01*
X68315720Y-45479476D01*
G37*
X68315720Y-45479476D02*
X68764262Y-45488056D01*
X69132403Y-45503231D01*
X69425206Y-45525372D01*
X69647732Y-45554854D01*
X69805043Y-45592047D01*
X69895194Y-45632516D01*
X70023518Y-45749458D01*
X70062542Y-45875102D01*
X70034635Y-45975511D01*
X69914877Y-46119900D01*
X69705412Y-46252512D01*
X69406182Y-46373370D01*
X69017129Y-46482496D01*
X68538193Y-46579913D01*
X68369358Y-46608073D01*
X68137232Y-46645334D01*
X67931557Y-46678912D01*
X67771968Y-46705563D01*
X67678095Y-46722041D01*
X67668321Y-46723956D01*
X67592111Y-46772850D01*
X67506280Y-46874158D01*
X67474199Y-46925300D01*
X67370791Y-47107929D01*
X66963931Y-47107929D01*
X66784481Y-47105867D01*
X66645462Y-47100347D01*
X66567147Y-47092362D01*
X66557071Y-47087947D01*
X66580397Y-47044880D01*
X66644645Y-46939568D01*
X66741219Y-46785774D01*
X66861526Y-46597263D01*
X66925297Y-46498305D01*
X67293522Y-45928643D01*
X67696368Y-45928643D01*
X67874843Y-45931457D01*
X68012789Y-45938987D01*
X68089834Y-45949868D01*
X68099214Y-45955659D01*
X68075344Y-46007124D01*
X68016736Y-46098301D01*
X68005224Y-46114671D01*
X67934063Y-46252947D01*
X67940694Y-46353660D01*
X68023903Y-46411022D01*
X68069095Y-46419584D01*
X68201809Y-46412002D01*
X68383799Y-46373390D01*
X68583340Y-46313560D01*
X68768707Y-46242321D01*
X68908174Y-46169483D01*
X68931060Y-46153036D01*
X69017015Y-46052256D01*
X69049921Y-45943232D01*
X69025700Y-45853720D01*
X68979969Y-45820103D01*
X68917927Y-45813164D01*
X68777013Y-45806822D01*
X68569069Y-45801310D01*
X68305937Y-45796858D01*
X67999458Y-45793699D01*
X67661473Y-45792065D01*
X67539879Y-45791897D01*
X66171535Y-45791222D01*
X66534393Y-45478478D01*
X67781714Y-45477119D01*
X68315720Y-45479476D01*
D12*
%TO.C,D1*%
X49840000Y-47260000D02*
X49840000Y-49945000D01*
X49840000Y-49945000D02*
X51760000Y-49945000D01*
X51760000Y-49945000D02*
X51760000Y-47260000D01*
%TO.C,D2*%
X76906000Y-48675000D02*
X76906000Y-45990000D01*
X74986000Y-48675000D02*
X76906000Y-48675000D01*
X74986000Y-45990000D02*
X74986000Y-48675000D01*
%TO.C,J1*%
X37350000Y-45590000D02*
X46470000Y-45590000D01*
X46470000Y-45590000D02*
X46470000Y-66170000D01*
X46470000Y-66170000D02*
X37350000Y-66170000D01*
X37350000Y-66170000D02*
X37350000Y-45590000D01*
X37350000Y-53830000D02*
X38660000Y-53830000D01*
X38660000Y-53830000D02*
X38660000Y-46890000D01*
X38660000Y-46890000D02*
X45160000Y-46890000D01*
X45160000Y-46890000D02*
X45160000Y-64870000D01*
X45160000Y-64870000D02*
X38660000Y-64870000D01*
X38660000Y-64870000D02*
X38660000Y-57930000D01*
X38660000Y-57930000D02*
X38660000Y-57930000D01*
X38660000Y-57930000D02*
X37350000Y-57930000D01*
X36960000Y-50800000D02*
X35960000Y-50300000D01*
X35960000Y-50300000D02*
X35960000Y-51300000D01*
X35960000Y-51300000D02*
X36960000Y-50800000D01*
%TO.C,J2*%
X58310000Y-60470000D02*
X58310000Y-66490000D01*
X58310000Y-66490000D02*
X68690000Y-66490000D01*
X68690000Y-66490000D02*
X68690000Y-60470000D01*
X68690000Y-60470000D02*
X58310000Y-60470000D01*
X58020000Y-61500000D02*
X58020000Y-65500000D01*
X59690000Y-66490000D02*
X59690000Y-65490000D01*
X59690000Y-65490000D02*
X67310000Y-65490000D01*
X67310000Y-65490000D02*
X67310000Y-66490000D01*
X59690000Y-65490000D02*
X59940000Y-64960000D01*
X59940000Y-64960000D02*
X67060000Y-64960000D01*
X67060000Y-64960000D02*
X67310000Y-65490000D01*
X59940000Y-66490000D02*
X59940000Y-65490000D01*
X67060000Y-66490000D02*
X67060000Y-65490000D01*
X58890000Y-60470000D02*
X58890000Y-61070000D01*
X58890000Y-61070000D02*
X60490000Y-61070000D01*
X60490000Y-61070000D02*
X60490000Y-60470000D01*
X61430000Y-60470000D02*
X61430000Y-61070000D01*
X61430000Y-61070000D02*
X63030000Y-61070000D01*
X63030000Y-61070000D02*
X63030000Y-60470000D01*
X63970000Y-60470000D02*
X63970000Y-61070000D01*
X63970000Y-61070000D02*
X65570000Y-61070000D01*
X65570000Y-61070000D02*
X65570000Y-60470000D01*
X66510000Y-60470000D02*
X66510000Y-61070000D01*
X66510000Y-61070000D02*
X68110000Y-61070000D01*
X68110000Y-61070000D02*
X68110000Y-60470000D01*
%TO.C,R1*%
X47525000Y-48487064D02*
X47525000Y-48032936D01*
X48995000Y-48487064D02*
X48995000Y-48032936D01*
%TO.C,R2*%
X74141000Y-47217064D02*
X74141000Y-46762936D01*
X72671000Y-47217064D02*
X72671000Y-46762936D01*
%TO.C,X1*%
X73670000Y-60615000D02*
X73220000Y-60615000D01*
X73220000Y-60615000D02*
X73220000Y-59665000D01*
X73220000Y-59665000D02*
X71730000Y-59665000D01*
X73670000Y-51145000D02*
X73220000Y-51145000D01*
X73220000Y-51145000D02*
X73220000Y-52095000D01*
X77190000Y-60615000D02*
X77640000Y-60615000D01*
X77640000Y-60615000D02*
X77640000Y-51145000D01*
X77640000Y-51145000D02*
X77190000Y-51145000D01*
%TO.C,R3*%
X61930001Y-57377064D02*
X61930001Y-56922936D01*
X63400001Y-57377064D02*
X63400001Y-56922936D01*
%TO.C,R4*%
X65505000Y-57377064D02*
X65505000Y-56922936D01*
X64035000Y-57377064D02*
X64035000Y-56922936D01*
%TO.C,SW1*%
X51393333Y-56515000D02*
X51393333Y-57785000D01*
X50040000Y-57715000D02*
X51393333Y-57715000D01*
X50040000Y-57595000D02*
X51393333Y-57595000D01*
X50040000Y-57475000D02*
X51393333Y-57475000D01*
X50040000Y-57355000D02*
X51393333Y-57355000D01*
X50040000Y-57235000D02*
X51393333Y-57235000D01*
X50040000Y-57115000D02*
X51393333Y-57115000D01*
X50040000Y-56995000D02*
X51393333Y-56995000D01*
X50040000Y-56875000D02*
X51393333Y-56875000D01*
X50040000Y-56755000D02*
X51393333Y-56755000D01*
X50040000Y-56635000D02*
X51393333Y-56635000D01*
X54100000Y-56515000D02*
X50040000Y-56515000D01*
X54100000Y-57785000D02*
X54100000Y-56515000D01*
X50040000Y-57785000D02*
X54100000Y-57785000D01*
X50040000Y-56515000D02*
X50040000Y-57785000D01*
X51393333Y-53975000D02*
X51393333Y-55245000D01*
X50040000Y-55175000D02*
X51393333Y-55175000D01*
X50040000Y-55055000D02*
X51393333Y-55055000D01*
X50040000Y-54935000D02*
X51393333Y-54935000D01*
X50040000Y-54815000D02*
X51393333Y-54815000D01*
X50040000Y-54695000D02*
X51393333Y-54695000D01*
X50040000Y-54575000D02*
X51393333Y-54575000D01*
X50040000Y-54455000D02*
X51393333Y-54455000D01*
X50040000Y-54335000D02*
X51393333Y-54335000D01*
X50040000Y-54215000D02*
X51393333Y-54215000D01*
X50040000Y-54095000D02*
X51393333Y-54095000D01*
X54100000Y-53975000D02*
X50040000Y-53975000D01*
X54100000Y-55245000D02*
X54100000Y-53975000D01*
X50040000Y-55245000D02*
X54100000Y-55245000D01*
X50040000Y-53975000D02*
X50040000Y-55245000D01*
X46880000Y-51950000D02*
X46880000Y-53333000D01*
X46880000Y-51950000D02*
X48264000Y-51950000D01*
X57020000Y-52190000D02*
X57020000Y-59570000D01*
X47120000Y-52190000D02*
X47120000Y-59570000D01*
X47120000Y-59570000D02*
X57020000Y-59570000D01*
X47120000Y-52190000D02*
X57020000Y-52190000D01*
%TO.C,D3*%
X54273500Y-63444000D02*
X56958500Y-63444000D01*
X54273500Y-61524000D02*
X54273500Y-63444000D01*
X56958500Y-61524000D02*
X54273500Y-61524000D01*
%TO.C,R5*%
X56257564Y-64543000D02*
X55803436Y-64543000D01*
X56257564Y-66013000D02*
X55803436Y-66013000D01*
%TO.C,D1*%
D10*
X51116666Y-46363666D02*
X50416666Y-46363666D01*
X50416666Y-46197000D01*
X50450000Y-46097000D01*
X50516666Y-46030333D01*
X50583333Y-45997000D01*
X50716666Y-45963666D01*
X50816666Y-45963666D01*
X50950000Y-45997000D01*
X51016666Y-46030333D01*
X51083333Y-46097000D01*
X51116666Y-46197000D01*
X51116666Y-46363666D01*
X51116666Y-45297000D02*
X51116666Y-45697000D01*
X51116666Y-45497000D02*
X50416666Y-45497000D01*
X50516666Y-45563666D01*
X50583333Y-45630333D01*
X50616666Y-45697000D01*
%TO.C,D2*%
X77786666Y-47506666D02*
X77086666Y-47506666D01*
X77086666Y-47340000D01*
X77120000Y-47240000D01*
X77186666Y-47173333D01*
X77253333Y-47140000D01*
X77386666Y-47106666D01*
X77486666Y-47106666D01*
X77620000Y-47140000D01*
X77686666Y-47173333D01*
X77753333Y-47240000D01*
X77786666Y-47340000D01*
X77786666Y-47506666D01*
X77153333Y-46840000D02*
X77120000Y-46806666D01*
X77086666Y-46740000D01*
X77086666Y-46573333D01*
X77120000Y-46506666D01*
X77153333Y-46473333D01*
X77220000Y-46440000D01*
X77286666Y-46440000D01*
X77386666Y-46473333D01*
X77786666Y-46873333D01*
X77786666Y-46440000D01*
%TO.C,J1*%
X36088666Y-55496666D02*
X36088666Y-55996666D01*
X36055333Y-56096666D01*
X35988666Y-56163333D01*
X35888666Y-56196666D01*
X35822000Y-56196666D01*
X36788666Y-56196666D02*
X36388666Y-56196666D01*
X36588666Y-56196666D02*
X36588666Y-55496666D01*
X36522000Y-55596666D01*
X36455333Y-55663333D01*
X36388666Y-55696666D01*
%TO.C,J2*%
X69616666Y-65783666D02*
X69616666Y-66283666D01*
X69583333Y-66383666D01*
X69516666Y-66450333D01*
X69416666Y-66483666D01*
X69350000Y-66483666D01*
X69916666Y-65850333D02*
X69950000Y-65817000D01*
X70016666Y-65783666D01*
X70183333Y-65783666D01*
X70250000Y-65817000D01*
X70283333Y-65850333D01*
X70316666Y-65917000D01*
X70316666Y-65983666D01*
X70283333Y-66083666D01*
X69883333Y-66483666D01*
X70316666Y-66483666D01*
%TO.C,R1*%
X48576666Y-45963666D02*
X48243333Y-46197000D01*
X48576666Y-46363666D02*
X47876666Y-46363666D01*
X47876666Y-46097000D01*
X47910000Y-46030333D01*
X47943333Y-45997000D01*
X48010000Y-45963666D01*
X48110000Y-45963666D01*
X48176666Y-45997000D01*
X48210000Y-46030333D01*
X48243333Y-46097000D01*
X48243333Y-46363666D01*
X48576666Y-45297000D02*
X48576666Y-45697000D01*
X48576666Y-45497000D02*
X47876666Y-45497000D01*
X47976666Y-45563666D01*
X48043333Y-45630333D01*
X48076666Y-45697000D01*
%TO.C,R2*%
X72198666Y-47106666D02*
X71865333Y-47340000D01*
X72198666Y-47506666D02*
X71498666Y-47506666D01*
X71498666Y-47240000D01*
X71532000Y-47173333D01*
X71565333Y-47140000D01*
X71632000Y-47106666D01*
X71732000Y-47106666D01*
X71798666Y-47140000D01*
X71832000Y-47173333D01*
X71865333Y-47240000D01*
X71865333Y-47506666D01*
X71565333Y-46840000D02*
X71532000Y-46806666D01*
X71498666Y-46740000D01*
X71498666Y-46573333D01*
X71532000Y-46506666D01*
X71565333Y-46473333D01*
X71632000Y-46440000D01*
X71698666Y-46440000D01*
X71798666Y-46473333D01*
X72198666Y-46873333D01*
X72198666Y-46440000D01*
%TO.C,X1*%
X78102666Y-62796666D02*
X78802666Y-62330000D01*
X78102666Y-62330000D02*
X78802666Y-62796666D01*
X78802666Y-61696666D02*
X78802666Y-62096666D01*
X78802666Y-61896666D02*
X78102666Y-61896666D01*
X78202666Y-61963333D01*
X78269333Y-62030000D01*
X78302666Y-62096666D01*
%TO.C,R3*%
X62927666Y-54853666D02*
X62594333Y-55087000D01*
X62927666Y-55253666D02*
X62227666Y-55253666D01*
X62227666Y-54987000D01*
X62261000Y-54920333D01*
X62294333Y-54887000D01*
X62361000Y-54853666D01*
X62461000Y-54853666D01*
X62527666Y-54887000D01*
X62561000Y-54920333D01*
X62594333Y-54987000D01*
X62594333Y-55253666D01*
X62227666Y-54620333D02*
X62227666Y-54187000D01*
X62494333Y-54420333D01*
X62494333Y-54320333D01*
X62527666Y-54253666D01*
X62561000Y-54220333D01*
X62627666Y-54187000D01*
X62794333Y-54187000D01*
X62861000Y-54220333D01*
X62894333Y-54253666D01*
X62927666Y-54320333D01*
X62927666Y-54520333D01*
X62894333Y-54587000D01*
X62861000Y-54620333D01*
%TO.C,R4*%
X65086666Y-54853666D02*
X64753333Y-55087000D01*
X65086666Y-55253666D02*
X64386666Y-55253666D01*
X64386666Y-54987000D01*
X64420000Y-54920333D01*
X64453333Y-54887000D01*
X64520000Y-54853666D01*
X64620000Y-54853666D01*
X64686666Y-54887000D01*
X64720000Y-54920333D01*
X64753333Y-54987000D01*
X64753333Y-55253666D01*
X64620000Y-54253666D02*
X65086666Y-54253666D01*
X64353333Y-54420333D02*
X64853333Y-54587000D01*
X64853333Y-54153666D01*
%TO.C,SW1*%
X51136666Y-51473333D02*
X51236666Y-51506666D01*
X51403333Y-51506666D01*
X51470000Y-51473333D01*
X51503333Y-51440000D01*
X51536666Y-51373333D01*
X51536666Y-51306666D01*
X51503333Y-51240000D01*
X51470000Y-51206666D01*
X51403333Y-51173333D01*
X51270000Y-51140000D01*
X51203333Y-51106666D01*
X51170000Y-51073333D01*
X51136666Y-51006666D01*
X51136666Y-50940000D01*
X51170000Y-50873333D01*
X51203333Y-50840000D01*
X51270000Y-50806666D01*
X51436666Y-50806666D01*
X51536666Y-50840000D01*
X51770000Y-50806666D02*
X51936666Y-51506666D01*
X52070000Y-51006666D01*
X52203333Y-51506666D01*
X52370000Y-50806666D01*
X53003333Y-51506666D02*
X52603333Y-51506666D01*
X52803333Y-51506666D02*
X52803333Y-50806666D01*
X52736666Y-50906666D01*
X52670000Y-50973333D01*
X52603333Y-51006666D01*
%TO.C,D3*%
X53910666Y-63000666D02*
X53210666Y-63000666D01*
X53210666Y-62834000D01*
X53244000Y-62734000D01*
X53310666Y-62667333D01*
X53377333Y-62634000D01*
X53510666Y-62600666D01*
X53610666Y-62600666D01*
X53744000Y-62634000D01*
X53810666Y-62667333D01*
X53877333Y-62734000D01*
X53910666Y-62834000D01*
X53910666Y-63000666D01*
X53210666Y-62367333D02*
X53210666Y-61934000D01*
X53477333Y-62167333D01*
X53477333Y-62067333D01*
X53510666Y-62000666D01*
X53544000Y-61967333D01*
X53610666Y-61934000D01*
X53777333Y-61934000D01*
X53844000Y-61967333D01*
X53877333Y-62000666D01*
X53910666Y-62067333D01*
X53910666Y-62267333D01*
X53877333Y-62334000D01*
X53844000Y-62367333D01*
%TO.C,R5*%
X53910666Y-65394666D02*
X53577333Y-65628000D01*
X53910666Y-65794666D02*
X53210666Y-65794666D01*
X53210666Y-65528000D01*
X53244000Y-65461333D01*
X53277333Y-65428000D01*
X53344000Y-65394666D01*
X53444000Y-65394666D01*
X53510666Y-65428000D01*
X53544000Y-65461333D01*
X53577333Y-65528000D01*
X53577333Y-65794666D01*
X53210666Y-64761333D02*
X53210666Y-65094666D01*
X53544000Y-65128000D01*
X53510666Y-65094666D01*
X53477333Y-65028000D01*
X53477333Y-64861333D01*
X53510666Y-64794666D01*
X53544000Y-64761333D01*
X53610666Y-64728000D01*
X53777333Y-64728000D01*
X53844000Y-64761333D01*
X53877333Y-64794666D01*
X53910666Y-64861333D01*
X53910666Y-65028000D01*
X53877333Y-65094666D01*
X53844000Y-65128000D01*
%TD*%
M02*
