%TF.GenerationSoftware,KiCad,Pcbnew,(5.1.8)-1*%
%TF.CreationDate,2022-04-17T09:09:35+02:00*%
%TF.ProjectId,UPDI-Adapter_V1.0,55504449-2d41-4646-9170-7465725f5631,rev?*%
%TF.SameCoordinates,Original*%
%TF.FileFunction,Copper,L1,Top*%
%TF.FilePolarity,Positive*%
%FSLAX46Y46*%
G04 Gerber Fmt 4.6, Leading zero omitted, Abs format (unit mm)*
G04 Created by KiCad (PCBNEW (5.1.8)-1) date 2022-04-17 09:09:35*
%MOMM*%
%LPD*%
G01*
G04 APERTURE LIST*
%TA.AperFunction,ComponentPad*%
%ADD10C,1.700000*%
%TD*%
%TA.AperFunction,ComponentPad*%
%ADD11O,1.740000X2.190000*%
%TD*%
%TA.AperFunction,ComponentPad*%
%ADD12R,1.600000X1.600000*%
%TD*%
%TA.AperFunction,ComponentPad*%
%ADD13O,1.600000X1.600000*%
%TD*%
%TA.AperFunction,ViaPad*%
%ADD14C,0.800000*%
%TD*%
%TA.AperFunction,Conductor*%
%ADD15C,0.500000*%
%TD*%
%TA.AperFunction,Conductor*%
%ADD16C,0.250000*%
%TD*%
%TA.AperFunction,Conductor*%
%ADD17C,0.254000*%
%TD*%
%TA.AperFunction,Conductor*%
%ADD18C,0.100000*%
%TD*%
G04 APERTURE END LIST*
%TO.P,D1,1*%
%TO.N,GND*%
%TA.AperFunction,SMDPad,CuDef*%
G36*
G01*
X51256250Y-49685000D02*
X50343750Y-49685000D01*
G75*
G02*
X50100000Y-49441250I0J243750D01*
G01*
X50100000Y-48953750D01*
G75*
G02*
X50343750Y-48710000I243750J0D01*
G01*
X51256250Y-48710000D01*
G75*
G02*
X51500000Y-48953750I0J-243750D01*
G01*
X51500000Y-49441250D01*
G75*
G02*
X51256250Y-49685000I-243750J0D01*
G01*
G37*
%TD.AperFunction*%
%TO.P,D1,2*%
%TO.N,Net-(D1-Pad2)*%
%TA.AperFunction,SMDPad,CuDef*%
G36*
G01*
X51256250Y-47810000D02*
X50343750Y-47810000D01*
G75*
G02*
X50100000Y-47566250I0J243750D01*
G01*
X50100000Y-47078750D01*
G75*
G02*
X50343750Y-46835000I243750J0D01*
G01*
X51256250Y-46835000D01*
G75*
G02*
X51500000Y-47078750I0J-243750D01*
G01*
X51500000Y-47566250D01*
G75*
G02*
X51256250Y-47810000I-243750J0D01*
G01*
G37*
%TD.AperFunction*%
%TD*%
%TO.P,D2,2*%
%TO.N,Net-(D2-Pad2)*%
%TA.AperFunction,SMDPad,CuDef*%
G36*
G01*
X76402250Y-46540000D02*
X75489750Y-46540000D01*
G75*
G02*
X75246000Y-46296250I0J243750D01*
G01*
X75246000Y-45808750D01*
G75*
G02*
X75489750Y-45565000I243750J0D01*
G01*
X76402250Y-45565000D01*
G75*
G02*
X76646000Y-45808750I0J-243750D01*
G01*
X76646000Y-46296250D01*
G75*
G02*
X76402250Y-46540000I-243750J0D01*
G01*
G37*
%TD.AperFunction*%
%TO.P,D2,1*%
%TO.N,GND*%
%TA.AperFunction,SMDPad,CuDef*%
G36*
G01*
X76402250Y-48415000D02*
X75489750Y-48415000D01*
G75*
G02*
X75246000Y-48171250I0J243750D01*
G01*
X75246000Y-47683750D01*
G75*
G02*
X75489750Y-47440000I243750J0D01*
G01*
X76402250Y-47440000D01*
G75*
G02*
X76646000Y-47683750I0J-243750D01*
G01*
X76646000Y-48171250D01*
G75*
G02*
X76402250Y-48415000I-243750J0D01*
G01*
G37*
%TD.AperFunction*%
%TD*%
%TO.P,J1,1*%
%TO.N,/EXA_TX*%
%TA.AperFunction,ComponentPad*%
G36*
G01*
X39790000Y-51400000D02*
X39790000Y-50200000D01*
G75*
G02*
X40040000Y-49950000I250000J0D01*
G01*
X41240000Y-49950000D01*
G75*
G02*
X41490000Y-50200000I0J-250000D01*
G01*
X41490000Y-51400000D01*
G75*
G02*
X41240000Y-51650000I-250000J0D01*
G01*
X40040000Y-51650000D01*
G75*
G02*
X39790000Y-51400000I0J250000D01*
G01*
G37*
%TD.AperFunction*%
D10*
%TO.P,J1,3*%
%TO.N,Net-(J1-Pad3)*%
X40640000Y-53340000D03*
%TO.P,J1,5*%
%TO.N,Net-(J1-Pad5)*%
X40640000Y-55880000D03*
%TO.P,J1,7*%
%TO.N,Net-(J1-Pad7)*%
X40640000Y-58420000D03*
%TO.P,J1,9*%
%TO.N,/EXA_RX*%
X40640000Y-60960000D03*
%TO.P,J1,2*%
%TO.N,Net-(J1-Pad2)*%
X43180000Y-50800000D03*
%TO.P,J1,4*%
%TO.N,/UPDI*%
X43180000Y-53340000D03*
%TO.P,J1,6*%
%TO.N,Net-(J1-Pad6)*%
X43180000Y-55880000D03*
%TO.P,J1,8*%
%TO.N,Net-(J1-Pad8)*%
X43180000Y-58420000D03*
%TO.P,J1,10*%
%TO.N,GND*%
X43180000Y-60960000D03*
%TD*%
%TO.P,J2,1*%
%TO.N,/J2_PWR*%
%TA.AperFunction,ComponentPad*%
G36*
G01*
X58820000Y-64345001D02*
X58820000Y-62654999D01*
G75*
G02*
X59069999Y-62405000I249999J0D01*
G01*
X60310001Y-62405000D01*
G75*
G02*
X60560000Y-62654999I0J-249999D01*
G01*
X60560000Y-64345001D01*
G75*
G02*
X60310001Y-64595000I-249999J0D01*
G01*
X59069999Y-64595000D01*
G75*
G02*
X58820000Y-64345001I0J249999D01*
G01*
G37*
%TD.AperFunction*%
D11*
%TO.P,J2,2*%
%TO.N,Net-(J2-Pad2)*%
X62230000Y-63500000D03*
%TO.P,J2,3*%
%TO.N,Net-(J2-Pad3)*%
X64770000Y-63500000D03*
%TO.P,J2,4*%
%TO.N,GND*%
X67310000Y-63500000D03*
%TD*%
%TO.P,R1,1*%
%TO.N,Net-(D1-Pad2)*%
%TA.AperFunction,SMDPad,CuDef*%
G36*
G01*
X48710001Y-49685000D02*
X47809999Y-49685000D01*
G75*
G02*
X47560000Y-49435001I0J249999D01*
G01*
X47560000Y-48909999D01*
G75*
G02*
X47809999Y-48660000I249999J0D01*
G01*
X48710001Y-48660000D01*
G75*
G02*
X48960000Y-48909999I0J-249999D01*
G01*
X48960000Y-49435001D01*
G75*
G02*
X48710001Y-49685000I-249999J0D01*
G01*
G37*
%TD.AperFunction*%
%TO.P,R1,2*%
%TO.N,Net-(J1-Pad2)*%
%TA.AperFunction,SMDPad,CuDef*%
G36*
G01*
X48710001Y-47860000D02*
X47809999Y-47860000D01*
G75*
G02*
X47560000Y-47610001I0J249999D01*
G01*
X47560000Y-47084999D01*
G75*
G02*
X47809999Y-46835000I249999J0D01*
G01*
X48710001Y-46835000D01*
G75*
G02*
X48960000Y-47084999I0J-249999D01*
G01*
X48960000Y-47610001D01*
G75*
G02*
X48710001Y-47860000I-249999J0D01*
G01*
G37*
%TD.AperFunction*%
%TD*%
%TO.P,R2,2*%
%TO.N,VCC*%
%TA.AperFunction,SMDPad,CuDef*%
G36*
G01*
X73856001Y-46590000D02*
X72955999Y-46590000D01*
G75*
G02*
X72706000Y-46340001I0J249999D01*
G01*
X72706000Y-45814999D01*
G75*
G02*
X72955999Y-45565000I249999J0D01*
G01*
X73856001Y-45565000D01*
G75*
G02*
X74106000Y-45814999I0J-249999D01*
G01*
X74106000Y-46340001D01*
G75*
G02*
X73856001Y-46590000I-249999J0D01*
G01*
G37*
%TD.AperFunction*%
%TO.P,R2,1*%
%TO.N,Net-(D2-Pad2)*%
%TA.AperFunction,SMDPad,CuDef*%
G36*
G01*
X73856001Y-48415000D02*
X72955999Y-48415000D01*
G75*
G02*
X72706000Y-48165001I0J249999D01*
G01*
X72706000Y-47639999D01*
G75*
G02*
X72955999Y-47390000I249999J0D01*
G01*
X73856001Y-47390000D01*
G75*
G02*
X74106000Y-47639999I0J-249999D01*
G01*
X74106000Y-48165001D01*
G75*
G02*
X73856001Y-48415000I-249999J0D01*
G01*
G37*
%TD.AperFunction*%
%TD*%
%TO.P,X1,1*%
%TO.N,GND*%
%TA.AperFunction,SMDPad,CuDef*%
G36*
G01*
X73130000Y-59405000D02*
X71930000Y-59405000D01*
G75*
G02*
X71730000Y-59205000I0J200000D01*
G01*
X71730000Y-58805000D01*
G75*
G02*
X71930000Y-58605000I200000J0D01*
G01*
X73130000Y-58605000D01*
G75*
G02*
X73330000Y-58805000I0J-200000D01*
G01*
X73330000Y-59205000D01*
G75*
G02*
X73130000Y-59405000I-200000J0D01*
G01*
G37*
%TD.AperFunction*%
%TO.P,X1,2*%
%TO.N,/Tar_RX*%
%TA.AperFunction,SMDPad,CuDef*%
G36*
G01*
X73130000Y-58155000D02*
X71930000Y-58155000D01*
G75*
G02*
X71730000Y-57955000I0J200000D01*
G01*
X71730000Y-57555000D01*
G75*
G02*
X71930000Y-57355000I200000J0D01*
G01*
X73130000Y-57355000D01*
G75*
G02*
X73330000Y-57555000I0J-200000D01*
G01*
X73330000Y-57955000D01*
G75*
G02*
X73130000Y-58155000I-200000J0D01*
G01*
G37*
%TD.AperFunction*%
%TO.P,X1,3*%
%TO.N,/Tar_TX*%
%TA.AperFunction,SMDPad,CuDef*%
G36*
G01*
X73130000Y-56905000D02*
X71930000Y-56905000D01*
G75*
G02*
X71730000Y-56705000I0J200000D01*
G01*
X71730000Y-56305000D01*
G75*
G02*
X71930000Y-56105000I200000J0D01*
G01*
X73130000Y-56105000D01*
G75*
G02*
X73330000Y-56305000I0J-200000D01*
G01*
X73330000Y-56705000D01*
G75*
G02*
X73130000Y-56905000I-200000J0D01*
G01*
G37*
%TD.AperFunction*%
%TO.P,X1,4*%
%TO.N,Net-(X1-Pad4)*%
%TA.AperFunction,SMDPad,CuDef*%
G36*
G01*
X73130000Y-55655000D02*
X71930000Y-55655000D01*
G75*
G02*
X71730000Y-55455000I0J200000D01*
G01*
X71730000Y-55055000D01*
G75*
G02*
X71930000Y-54855000I200000J0D01*
G01*
X73130000Y-54855000D01*
G75*
G02*
X73330000Y-55055000I0J-200000D01*
G01*
X73330000Y-55455000D01*
G75*
G02*
X73130000Y-55655000I-200000J0D01*
G01*
G37*
%TD.AperFunction*%
%TO.P,X1,5*%
%TO.N,/UPDI*%
%TA.AperFunction,SMDPad,CuDef*%
G36*
G01*
X73130000Y-54405000D02*
X71930000Y-54405000D01*
G75*
G02*
X71730000Y-54205000I0J200000D01*
G01*
X71730000Y-53805000D01*
G75*
G02*
X71930000Y-53605000I200000J0D01*
G01*
X73130000Y-53605000D01*
G75*
G02*
X73330000Y-53805000I0J-200000D01*
G01*
X73330000Y-54205000D01*
G75*
G02*
X73130000Y-54405000I-200000J0D01*
G01*
G37*
%TD.AperFunction*%
%TO.P,X1,6*%
%TO.N,VCC*%
%TA.AperFunction,SMDPad,CuDef*%
G36*
G01*
X73130000Y-53155000D02*
X71930000Y-53155000D01*
G75*
G02*
X71730000Y-52955000I0J200000D01*
G01*
X71730000Y-52555000D01*
G75*
G02*
X71930000Y-52355000I200000J0D01*
G01*
X73130000Y-52355000D01*
G75*
G02*
X73330000Y-52555000I0J-200000D01*
G01*
X73330000Y-52955000D01*
G75*
G02*
X73130000Y-53155000I-200000J0D01*
G01*
G37*
%TD.AperFunction*%
%TO.P,X1,MP*%
%TO.N,N/C*%
%TA.AperFunction,SMDPad,CuDef*%
G36*
G01*
X76680000Y-62605000D02*
X74180000Y-62605000D01*
G75*
G02*
X73930000Y-62355000I0J250000D01*
G01*
X73930000Y-60755000D01*
G75*
G02*
X74180000Y-60505000I250000J0D01*
G01*
X76680000Y-60505000D01*
G75*
G02*
X76930000Y-60755000I0J-250000D01*
G01*
X76930000Y-62355000D01*
G75*
G02*
X76680000Y-62605000I-250000J0D01*
G01*
G37*
%TD.AperFunction*%
%TA.AperFunction,SMDPad,CuDef*%
G36*
G01*
X76680000Y-51255000D02*
X74180000Y-51255000D01*
G75*
G02*
X73930000Y-51005000I0J250000D01*
G01*
X73930000Y-49405000D01*
G75*
G02*
X74180000Y-49155000I250000J0D01*
G01*
X76680000Y-49155000D01*
G75*
G02*
X76930000Y-49405000I0J-250000D01*
G01*
X76930000Y-51005000D01*
G75*
G02*
X76680000Y-51255000I-250000J0D01*
G01*
G37*
%TD.AperFunction*%
%TD*%
%TO.P,R3,1*%
%TO.N,Net-(J2-Pad2)*%
%TA.AperFunction,SMDPad,CuDef*%
G36*
G01*
X63115002Y-58575000D02*
X62215000Y-58575000D01*
G75*
G02*
X61965001Y-58325001I0J249999D01*
G01*
X61965001Y-57799999D01*
G75*
G02*
X62215000Y-57550000I249999J0D01*
G01*
X63115002Y-57550000D01*
G75*
G02*
X63365001Y-57799999I0J-249999D01*
G01*
X63365001Y-58325001D01*
G75*
G02*
X63115002Y-58575000I-249999J0D01*
G01*
G37*
%TD.AperFunction*%
%TO.P,R3,2*%
%TO.N,/Tar_TX*%
%TA.AperFunction,SMDPad,CuDef*%
G36*
G01*
X63115002Y-56750000D02*
X62215000Y-56750000D01*
G75*
G02*
X61965001Y-56500001I0J249999D01*
G01*
X61965001Y-55974999D01*
G75*
G02*
X62215000Y-55725000I249999J0D01*
G01*
X63115002Y-55725000D01*
G75*
G02*
X63365001Y-55974999I0J-249999D01*
G01*
X63365001Y-56500001D01*
G75*
G02*
X63115002Y-56750000I-249999J0D01*
G01*
G37*
%TD.AperFunction*%
%TD*%
%TO.P,R4,2*%
%TO.N,/Tar_RX*%
%TA.AperFunction,SMDPad,CuDef*%
G36*
G01*
X65220001Y-56750000D02*
X64319999Y-56750000D01*
G75*
G02*
X64070000Y-56500001I0J249999D01*
G01*
X64070000Y-55974999D01*
G75*
G02*
X64319999Y-55725000I249999J0D01*
G01*
X65220001Y-55725000D01*
G75*
G02*
X65470000Y-55974999I0J-249999D01*
G01*
X65470000Y-56500001D01*
G75*
G02*
X65220001Y-56750000I-249999J0D01*
G01*
G37*
%TD.AperFunction*%
%TO.P,R4,1*%
%TO.N,Net-(J2-Pad3)*%
%TA.AperFunction,SMDPad,CuDef*%
G36*
G01*
X65220001Y-58575000D02*
X64319999Y-58575000D01*
G75*
G02*
X64070000Y-58325001I0J249999D01*
G01*
X64070000Y-57799999D01*
G75*
G02*
X64319999Y-57550000I249999J0D01*
G01*
X65220001Y-57550000D01*
G75*
G02*
X65470000Y-57799999I0J-249999D01*
G01*
X65470000Y-58325001D01*
G75*
G02*
X65220001Y-58575000I-249999J0D01*
G01*
G37*
%TD.AperFunction*%
%TD*%
D12*
%TO.P,SW1,1*%
%TO.N,Net-(J1-Pad2)*%
X48260000Y-54610000D03*
D13*
%TO.P,SW1,3*%
%TO.N,/J2_PWR*%
X55880000Y-57150000D03*
%TO.P,SW1,2*%
%TO.N,VCC*%
X48260000Y-57150000D03*
%TO.P,SW1,4*%
X55880000Y-54610000D03*
%TD*%
%TO.P,D3,1*%
%TO.N,GND*%
%TA.AperFunction,SMDPad,CuDef*%
G36*
G01*
X54533500Y-62940250D02*
X54533500Y-62027750D01*
G75*
G02*
X54777250Y-61784000I243750J0D01*
G01*
X55264750Y-61784000D01*
G75*
G02*
X55508500Y-62027750I0J-243750D01*
G01*
X55508500Y-62940250D01*
G75*
G02*
X55264750Y-63184000I-243750J0D01*
G01*
X54777250Y-63184000D01*
G75*
G02*
X54533500Y-62940250I0J243750D01*
G01*
G37*
%TD.AperFunction*%
%TO.P,D3,2*%
%TO.N,Net-(D3-Pad2)*%
%TA.AperFunction,SMDPad,CuDef*%
G36*
G01*
X56408500Y-62940250D02*
X56408500Y-62027750D01*
G75*
G02*
X56652250Y-61784000I243750J0D01*
G01*
X57139750Y-61784000D01*
G75*
G02*
X57383500Y-62027750I0J-243750D01*
G01*
X57383500Y-62940250D01*
G75*
G02*
X57139750Y-63184000I-243750J0D01*
G01*
X56652250Y-63184000D01*
G75*
G02*
X56408500Y-62940250I0J243750D01*
G01*
G37*
%TD.AperFunction*%
%TD*%
%TO.P,R5,1*%
%TO.N,Net-(D3-Pad2)*%
%TA.AperFunction,SMDPad,CuDef*%
G36*
G01*
X57455500Y-64827999D02*
X57455500Y-65728001D01*
G75*
G02*
X57205501Y-65978000I-249999J0D01*
G01*
X56680499Y-65978000D01*
G75*
G02*
X56430500Y-65728001I0J249999D01*
G01*
X56430500Y-64827999D01*
G75*
G02*
X56680499Y-64578000I249999J0D01*
G01*
X57205501Y-64578000D01*
G75*
G02*
X57455500Y-64827999I0J-249999D01*
G01*
G37*
%TD.AperFunction*%
%TO.P,R5,2*%
%TO.N,/J2_PWR*%
%TA.AperFunction,SMDPad,CuDef*%
G36*
G01*
X55630500Y-64827999D02*
X55630500Y-65728001D01*
G75*
G02*
X55380501Y-65978000I-249999J0D01*
G01*
X54855499Y-65978000D01*
G75*
G02*
X54605500Y-65728001I0J249999D01*
G01*
X54605500Y-64827999D01*
G75*
G02*
X54855499Y-64578000I249999J0D01*
G01*
X55380501Y-64578000D01*
G75*
G02*
X55630500Y-64827999I0J-249999D01*
G01*
G37*
%TD.AperFunction*%
%TD*%
D14*
%TO.N,GND*%
X46990000Y-51054000D03*
X78232000Y-48006000D03*
X52070000Y-61214000D03*
X67310000Y-51054000D03*
%TO.N,/Tar_TX*%
X41910000Y-62865000D03*
%TO.N,/Tar_RX*%
X49530000Y-60198000D03*
%TO.N,VCC*%
X61722000Y-49784000D03*
%TD*%
D15*
%TO.N,GND*%
X67310000Y-63500000D02*
X70866000Y-63500000D01*
X72530000Y-61836000D02*
X72530000Y-59005000D01*
X70866000Y-63500000D02*
X72530000Y-61836000D01*
X50800000Y-50038000D02*
X50800000Y-49197500D01*
X50800000Y-51054000D02*
X46990000Y-51054000D01*
X50800000Y-50038000D02*
X50800000Y-51054000D01*
X76024500Y-48006000D02*
X75946000Y-47927500D01*
X78232000Y-48006000D02*
X76024500Y-48006000D01*
D16*
X55021000Y-62484000D02*
X53086000Y-62484000D01*
X52070000Y-61468000D02*
X52070000Y-61214000D01*
X53086000Y-62484000D02*
X52070000Y-61468000D01*
D15*
X64262000Y-51054000D02*
X67310000Y-51054000D01*
X50800000Y-51054000D02*
X64262000Y-51054000D01*
D16*
%TO.N,Net-(D1-Pad2)*%
X48260000Y-49172500D02*
X48998500Y-49172500D01*
X48998500Y-49172500D02*
X49530000Y-48641000D01*
X49530000Y-48641000D02*
X49530000Y-47625000D01*
X49832500Y-47322500D02*
X50800000Y-47322500D01*
X49530000Y-47625000D02*
X49832500Y-47322500D01*
%TO.N,Net-(D2-Pad2)*%
X73406000Y-47902500D02*
X74271500Y-47902500D01*
X74271500Y-47902500D02*
X74676000Y-47498000D01*
X74676000Y-47498000D02*
X74676000Y-46482000D01*
X75105500Y-46052500D02*
X75946000Y-46052500D01*
X74676000Y-46482000D02*
X75105500Y-46052500D01*
D15*
%TO.N,Net-(J1-Pad2)*%
X43180000Y-50800000D02*
X44704000Y-50800000D01*
X44704000Y-50800000D02*
X45593000Y-49911000D01*
X45593000Y-49911000D02*
X45593000Y-48133000D01*
X46378500Y-47347500D02*
X48260000Y-47347500D01*
X45593000Y-48133000D02*
X46378500Y-47347500D01*
D16*
%TO.N,/UPDI*%
X68737000Y-54005000D02*
X72530000Y-54005000D01*
X68072000Y-53340000D02*
X68737000Y-54005000D01*
X63500000Y-53340000D02*
X68072000Y-53340000D01*
X62611000Y-52451000D02*
X63500000Y-53340000D01*
X55753000Y-52451000D02*
X62611000Y-52451000D01*
X54864000Y-53340000D02*
X55753000Y-52451000D01*
X43180000Y-53340000D02*
X54864000Y-53340000D01*
%TO.N,/Tar_TX*%
X62665001Y-56237500D02*
X62665001Y-55571999D01*
X62665001Y-55571999D02*
X62992000Y-55245000D01*
X62992000Y-55245000D02*
X68199000Y-55245000D01*
X69459000Y-56505000D02*
X72530000Y-56505000D01*
X68199000Y-55245000D02*
X69459000Y-56505000D01*
X61618500Y-56237500D02*
X62665001Y-56237500D01*
X49276000Y-59182000D02*
X57912000Y-59182000D01*
X45593000Y-62865000D02*
X49276000Y-59182000D01*
X60856500Y-56237500D02*
X61618500Y-56237500D01*
X57912000Y-59182000D02*
X60856500Y-56237500D01*
X41910000Y-62865000D02*
X45593000Y-62865000D01*
%TO.N,/Tar_RX*%
X64770000Y-56237500D02*
X67540500Y-56237500D01*
X69058000Y-57755000D02*
X72530000Y-57755000D01*
X67540500Y-56237500D02*
X69058000Y-57755000D01*
X57658000Y-60198000D02*
X57912000Y-60198000D01*
X49530000Y-60198000D02*
X57658000Y-60198000D01*
X57912000Y-60198000D02*
X60960000Y-57150000D01*
X63857500Y-57150000D02*
X64770000Y-56237500D01*
X60960000Y-57150000D02*
X63857500Y-57150000D01*
D15*
%TO.N,VCC*%
X62287685Y-49784000D02*
X61722000Y-49784000D01*
X68326000Y-49784000D02*
X62287685Y-49784000D01*
X72032500Y-46077500D02*
X68326000Y-49784000D01*
X73406000Y-46077500D02*
X72032500Y-46077500D01*
X68326000Y-49784000D02*
X68326000Y-51308000D01*
X69773000Y-52755000D02*
X72530000Y-52755000D01*
X68326000Y-51308000D02*
X69773000Y-52755000D01*
D16*
%TO.N,Net-(J2-Pad2)*%
X62230000Y-63500000D02*
X62230000Y-60833000D01*
X62665001Y-60397999D02*
X62665001Y-58062500D01*
X62230000Y-60833000D02*
X62665001Y-60397999D01*
%TO.N,Net-(J2-Pad3)*%
X64770000Y-63500000D02*
X64770000Y-58062500D01*
%TO.N,/J2_PWR*%
X55118000Y-65278000D02*
X55118000Y-66294000D01*
X55118000Y-66294000D02*
X55372000Y-66548000D01*
X55372000Y-66548000D02*
X58674000Y-66548000D01*
X59690000Y-65532000D02*
X59690000Y-63500000D01*
X58674000Y-66548000D02*
X59690000Y-65532000D01*
%TO.N,Net-(D3-Pad2)*%
X56943000Y-62531000D02*
X56896000Y-62484000D01*
X56943000Y-65278000D02*
X56943000Y-62531000D01*
%TD*%
D17*
%TO.N,GND*%
X77834545Y-45148909D02*
X78185208Y-45254780D01*
X78508625Y-45426744D01*
X78792484Y-45658254D01*
X79025965Y-45940486D01*
X79200183Y-46262695D01*
X79308502Y-46612614D01*
X79350001Y-47007452D01*
X79350000Y-64737721D01*
X79311091Y-65134545D01*
X79205220Y-65485206D01*
X79033257Y-65808623D01*
X78801748Y-66092482D01*
X78519514Y-66325965D01*
X78197304Y-66500184D01*
X77847385Y-66608502D01*
X77452557Y-66650000D01*
X59646801Y-66650000D01*
X60201004Y-66095798D01*
X60230001Y-66072001D01*
X60285804Y-66004005D01*
X60324974Y-65956277D01*
X60395546Y-65824247D01*
X60403205Y-65798997D01*
X60439003Y-65680986D01*
X60450000Y-65569333D01*
X60450000Y-65569323D01*
X60453676Y-65532000D01*
X60450000Y-65494678D01*
X60450000Y-65219283D01*
X60483255Y-65216008D01*
X60649851Y-65165472D01*
X60803387Y-65083405D01*
X60937962Y-64972962D01*
X61048405Y-64838387D01*
X61106934Y-64728886D01*
X61160655Y-64794345D01*
X61389822Y-64982417D01*
X61651276Y-65122166D01*
X61934969Y-65208224D01*
X62230000Y-65237282D01*
X62525032Y-65208224D01*
X62808725Y-65122166D01*
X63070179Y-64982417D01*
X63299345Y-64794345D01*
X63487417Y-64565179D01*
X63500000Y-64541638D01*
X63512583Y-64565179D01*
X63700655Y-64794345D01*
X63929822Y-64982417D01*
X64191276Y-65122166D01*
X64474969Y-65208224D01*
X64770000Y-65237282D01*
X65065032Y-65208224D01*
X65348725Y-65122166D01*
X65610179Y-64982417D01*
X65839345Y-64794345D01*
X66027417Y-64565179D01*
X66042560Y-64536848D01*
X66135292Y-64677433D01*
X66343674Y-64888306D01*
X66589191Y-65054474D01*
X66862409Y-65169551D01*
X66949969Y-65186302D01*
X67183000Y-65065246D01*
X67183000Y-63627000D01*
X67437000Y-63627000D01*
X67437000Y-65065246D01*
X67670031Y-65186302D01*
X67757591Y-65169551D01*
X68030809Y-65054474D01*
X68276326Y-64888306D01*
X68484708Y-64677433D01*
X68647947Y-64429958D01*
X68759769Y-64155392D01*
X68815877Y-63864286D01*
X68660376Y-63627000D01*
X67437000Y-63627000D01*
X67183000Y-63627000D01*
X67163000Y-63627000D01*
X67163000Y-63373000D01*
X67183000Y-63373000D01*
X67183000Y-61934754D01*
X67437000Y-61934754D01*
X67437000Y-63373000D01*
X68660376Y-63373000D01*
X68815877Y-63135714D01*
X68759769Y-62844608D01*
X68647947Y-62570042D01*
X68484708Y-62322567D01*
X68276326Y-62111694D01*
X68030809Y-61945526D01*
X67757591Y-61830449D01*
X67670031Y-61813698D01*
X67437000Y-61934754D01*
X67183000Y-61934754D01*
X66949969Y-61813698D01*
X66862409Y-61830449D01*
X66589191Y-61945526D01*
X66343674Y-62111694D01*
X66135292Y-62322567D01*
X66042560Y-62463152D01*
X66027417Y-62434821D01*
X65839345Y-62205655D01*
X65610178Y-62017583D01*
X65530000Y-61974727D01*
X65530000Y-60755000D01*
X73291928Y-60755000D01*
X73291928Y-62355000D01*
X73308992Y-62528254D01*
X73359528Y-62694850D01*
X73441595Y-62848386D01*
X73552038Y-62982962D01*
X73686614Y-63093405D01*
X73840150Y-63175472D01*
X74006746Y-63226008D01*
X74180000Y-63243072D01*
X76680000Y-63243072D01*
X76853254Y-63226008D01*
X77019850Y-63175472D01*
X77173386Y-63093405D01*
X77307962Y-62982962D01*
X77418405Y-62848386D01*
X77500472Y-62694850D01*
X77551008Y-62528254D01*
X77568072Y-62355000D01*
X77568072Y-60755000D01*
X77551008Y-60581746D01*
X77500472Y-60415150D01*
X77418405Y-60261614D01*
X77307962Y-60127038D01*
X77173386Y-60016595D01*
X77019850Y-59934528D01*
X76853254Y-59883992D01*
X76680000Y-59866928D01*
X74180000Y-59866928D01*
X74006746Y-59883992D01*
X73840150Y-59934528D01*
X73686614Y-60016595D01*
X73552038Y-60127038D01*
X73441595Y-60261614D01*
X73359528Y-60415150D01*
X73308992Y-60581746D01*
X73291928Y-60755000D01*
X65530000Y-60755000D01*
X65530000Y-59405000D01*
X71091928Y-59405000D01*
X71104188Y-59529482D01*
X71140498Y-59649180D01*
X71199463Y-59759494D01*
X71278815Y-59856185D01*
X71375506Y-59935537D01*
X71485820Y-59994502D01*
X71605518Y-60030812D01*
X71730000Y-60043072D01*
X72244250Y-60040000D01*
X72403000Y-59881250D01*
X72403000Y-59132000D01*
X72657000Y-59132000D01*
X72657000Y-59881250D01*
X72815750Y-60040000D01*
X73330000Y-60043072D01*
X73454482Y-60030812D01*
X73574180Y-59994502D01*
X73684494Y-59935537D01*
X73781185Y-59856185D01*
X73860537Y-59759494D01*
X73919502Y-59649180D01*
X73955812Y-59529482D01*
X73968072Y-59405000D01*
X73965000Y-59290750D01*
X73806250Y-59132000D01*
X72657000Y-59132000D01*
X72403000Y-59132000D01*
X71253750Y-59132000D01*
X71095000Y-59290750D01*
X71091928Y-59405000D01*
X65530000Y-59405000D01*
X65530000Y-59154527D01*
X65559851Y-59145472D01*
X65713387Y-59063405D01*
X65847962Y-58952962D01*
X65958405Y-58818387D01*
X66040472Y-58664851D01*
X66091008Y-58498255D01*
X66108072Y-58325001D01*
X66108072Y-57799999D01*
X66091008Y-57626745D01*
X66040472Y-57460149D01*
X65958405Y-57306613D01*
X65847962Y-57172038D01*
X65821109Y-57150000D01*
X65847962Y-57127962D01*
X65955030Y-56997500D01*
X67225699Y-56997500D01*
X68494201Y-58266003D01*
X68517999Y-58295001D01*
X68546997Y-58318799D01*
X68633723Y-58389974D01*
X68714213Y-58432997D01*
X68765753Y-58460546D01*
X68909014Y-58504003D01*
X69020667Y-58515000D01*
X69020676Y-58515000D01*
X69057999Y-58518676D01*
X69095322Y-58515000D01*
X71100792Y-58515000D01*
X71091928Y-58605000D01*
X71095000Y-58719250D01*
X71253750Y-58878000D01*
X72403000Y-58878000D01*
X72403000Y-58858000D01*
X72657000Y-58858000D01*
X72657000Y-58878000D01*
X73806250Y-58878000D01*
X73965000Y-58719250D01*
X73968072Y-58605000D01*
X73955812Y-58480518D01*
X73919502Y-58360820D01*
X73889145Y-58304027D01*
X73904278Y-58275716D01*
X73951969Y-58118500D01*
X73968072Y-57955000D01*
X73968072Y-57555000D01*
X73951969Y-57391500D01*
X73904278Y-57234284D01*
X73848537Y-57130000D01*
X73904278Y-57025716D01*
X73951969Y-56868500D01*
X73968072Y-56705000D01*
X73968072Y-56305000D01*
X73951969Y-56141500D01*
X73904278Y-55984284D01*
X73848537Y-55880000D01*
X73904278Y-55775716D01*
X73951969Y-55618500D01*
X73968072Y-55455000D01*
X73968072Y-55055000D01*
X73951969Y-54891500D01*
X73904278Y-54734284D01*
X73848537Y-54630000D01*
X73904278Y-54525716D01*
X73951969Y-54368500D01*
X73968072Y-54205000D01*
X73968072Y-53805000D01*
X73951969Y-53641500D01*
X73904278Y-53484284D01*
X73848537Y-53380000D01*
X73904278Y-53275716D01*
X73951969Y-53118500D01*
X73968072Y-52955000D01*
X73968072Y-52555000D01*
X73951969Y-52391500D01*
X73904278Y-52234284D01*
X73826831Y-52089392D01*
X73722606Y-51962394D01*
X73595608Y-51858169D01*
X73450716Y-51780722D01*
X73293500Y-51733031D01*
X73130000Y-51716928D01*
X71930000Y-51716928D01*
X71766500Y-51733031D01*
X71609284Y-51780722D01*
X71464392Y-51858169D01*
X71449976Y-51870000D01*
X70139579Y-51870000D01*
X69211000Y-50941422D01*
X69211000Y-50150578D01*
X72229627Y-47131951D01*
X72217595Y-47146613D01*
X72135528Y-47300149D01*
X72084992Y-47466745D01*
X72067928Y-47639999D01*
X72067928Y-48165001D01*
X72084992Y-48338255D01*
X72135528Y-48504851D01*
X72217595Y-48658387D01*
X72328038Y-48792962D01*
X72462613Y-48903405D01*
X72616149Y-48985472D01*
X72782745Y-49036008D01*
X72955999Y-49053072D01*
X73365984Y-49053072D01*
X73359528Y-49065150D01*
X73308992Y-49231746D01*
X73291928Y-49405000D01*
X73291928Y-51005000D01*
X73308992Y-51178254D01*
X73359528Y-51344850D01*
X73441595Y-51498386D01*
X73552038Y-51632962D01*
X73686614Y-51743405D01*
X73840150Y-51825472D01*
X74006746Y-51876008D01*
X74180000Y-51893072D01*
X76680000Y-51893072D01*
X76853254Y-51876008D01*
X77019850Y-51825472D01*
X77173386Y-51743405D01*
X77307962Y-51632962D01*
X77418405Y-51498386D01*
X77500472Y-51344850D01*
X77551008Y-51178254D01*
X77568072Y-51005000D01*
X77568072Y-49405000D01*
X77551008Y-49231746D01*
X77500472Y-49065150D01*
X77418405Y-48911614D01*
X77307962Y-48777038D01*
X77213807Y-48699768D01*
X77235502Y-48659180D01*
X77271812Y-48539482D01*
X77284072Y-48415000D01*
X77281000Y-48213250D01*
X77122250Y-48054500D01*
X76073000Y-48054500D01*
X76073000Y-48074500D01*
X75819000Y-48074500D01*
X75819000Y-48054500D01*
X75799000Y-48054500D01*
X75799000Y-47800500D01*
X75819000Y-47800500D01*
X75819000Y-47780500D01*
X76073000Y-47780500D01*
X76073000Y-47800500D01*
X77122250Y-47800500D01*
X77281000Y-47641750D01*
X77284072Y-47440000D01*
X77271812Y-47315518D01*
X77235502Y-47195820D01*
X77176537Y-47085506D01*
X77097185Y-46988815D01*
X77019436Y-46925008D01*
X77025792Y-46919792D01*
X77135458Y-46786164D01*
X77216947Y-46633709D01*
X77267128Y-46468285D01*
X77284072Y-46296250D01*
X77284072Y-45808750D01*
X77267128Y-45636715D01*
X77216947Y-45471291D01*
X77135458Y-45318836D01*
X77025792Y-45185208D01*
X76934151Y-45110000D01*
X77437721Y-45110000D01*
X77834545Y-45148909D01*
%TA.AperFunction,Conductor*%
D18*
G36*
X77834545Y-45148909D02*
G01*
X78185208Y-45254780D01*
X78508625Y-45426744D01*
X78792484Y-45658254D01*
X79025965Y-45940486D01*
X79200183Y-46262695D01*
X79308502Y-46612614D01*
X79350001Y-47007452D01*
X79350000Y-64737721D01*
X79311091Y-65134545D01*
X79205220Y-65485206D01*
X79033257Y-65808623D01*
X78801748Y-66092482D01*
X78519514Y-66325965D01*
X78197304Y-66500184D01*
X77847385Y-66608502D01*
X77452557Y-66650000D01*
X59646801Y-66650000D01*
X60201004Y-66095798D01*
X60230001Y-66072001D01*
X60285804Y-66004005D01*
X60324974Y-65956277D01*
X60395546Y-65824247D01*
X60403205Y-65798997D01*
X60439003Y-65680986D01*
X60450000Y-65569333D01*
X60450000Y-65569323D01*
X60453676Y-65532000D01*
X60450000Y-65494678D01*
X60450000Y-65219283D01*
X60483255Y-65216008D01*
X60649851Y-65165472D01*
X60803387Y-65083405D01*
X60937962Y-64972962D01*
X61048405Y-64838387D01*
X61106934Y-64728886D01*
X61160655Y-64794345D01*
X61389822Y-64982417D01*
X61651276Y-65122166D01*
X61934969Y-65208224D01*
X62230000Y-65237282D01*
X62525032Y-65208224D01*
X62808725Y-65122166D01*
X63070179Y-64982417D01*
X63299345Y-64794345D01*
X63487417Y-64565179D01*
X63500000Y-64541638D01*
X63512583Y-64565179D01*
X63700655Y-64794345D01*
X63929822Y-64982417D01*
X64191276Y-65122166D01*
X64474969Y-65208224D01*
X64770000Y-65237282D01*
X65065032Y-65208224D01*
X65348725Y-65122166D01*
X65610179Y-64982417D01*
X65839345Y-64794345D01*
X66027417Y-64565179D01*
X66042560Y-64536848D01*
X66135292Y-64677433D01*
X66343674Y-64888306D01*
X66589191Y-65054474D01*
X66862409Y-65169551D01*
X66949969Y-65186302D01*
X67183000Y-65065246D01*
X67183000Y-63627000D01*
X67437000Y-63627000D01*
X67437000Y-65065246D01*
X67670031Y-65186302D01*
X67757591Y-65169551D01*
X68030809Y-65054474D01*
X68276326Y-64888306D01*
X68484708Y-64677433D01*
X68647947Y-64429958D01*
X68759769Y-64155392D01*
X68815877Y-63864286D01*
X68660376Y-63627000D01*
X67437000Y-63627000D01*
X67183000Y-63627000D01*
X67163000Y-63627000D01*
X67163000Y-63373000D01*
X67183000Y-63373000D01*
X67183000Y-61934754D01*
X67437000Y-61934754D01*
X67437000Y-63373000D01*
X68660376Y-63373000D01*
X68815877Y-63135714D01*
X68759769Y-62844608D01*
X68647947Y-62570042D01*
X68484708Y-62322567D01*
X68276326Y-62111694D01*
X68030809Y-61945526D01*
X67757591Y-61830449D01*
X67670031Y-61813698D01*
X67437000Y-61934754D01*
X67183000Y-61934754D01*
X66949969Y-61813698D01*
X66862409Y-61830449D01*
X66589191Y-61945526D01*
X66343674Y-62111694D01*
X66135292Y-62322567D01*
X66042560Y-62463152D01*
X66027417Y-62434821D01*
X65839345Y-62205655D01*
X65610178Y-62017583D01*
X65530000Y-61974727D01*
X65530000Y-60755000D01*
X73291928Y-60755000D01*
X73291928Y-62355000D01*
X73308992Y-62528254D01*
X73359528Y-62694850D01*
X73441595Y-62848386D01*
X73552038Y-62982962D01*
X73686614Y-63093405D01*
X73840150Y-63175472D01*
X74006746Y-63226008D01*
X74180000Y-63243072D01*
X76680000Y-63243072D01*
X76853254Y-63226008D01*
X77019850Y-63175472D01*
X77173386Y-63093405D01*
X77307962Y-62982962D01*
X77418405Y-62848386D01*
X77500472Y-62694850D01*
X77551008Y-62528254D01*
X77568072Y-62355000D01*
X77568072Y-60755000D01*
X77551008Y-60581746D01*
X77500472Y-60415150D01*
X77418405Y-60261614D01*
X77307962Y-60127038D01*
X77173386Y-60016595D01*
X77019850Y-59934528D01*
X76853254Y-59883992D01*
X76680000Y-59866928D01*
X74180000Y-59866928D01*
X74006746Y-59883992D01*
X73840150Y-59934528D01*
X73686614Y-60016595D01*
X73552038Y-60127038D01*
X73441595Y-60261614D01*
X73359528Y-60415150D01*
X73308992Y-60581746D01*
X73291928Y-60755000D01*
X65530000Y-60755000D01*
X65530000Y-59405000D01*
X71091928Y-59405000D01*
X71104188Y-59529482D01*
X71140498Y-59649180D01*
X71199463Y-59759494D01*
X71278815Y-59856185D01*
X71375506Y-59935537D01*
X71485820Y-59994502D01*
X71605518Y-60030812D01*
X71730000Y-60043072D01*
X72244250Y-60040000D01*
X72403000Y-59881250D01*
X72403000Y-59132000D01*
X72657000Y-59132000D01*
X72657000Y-59881250D01*
X72815750Y-60040000D01*
X73330000Y-60043072D01*
X73454482Y-60030812D01*
X73574180Y-59994502D01*
X73684494Y-59935537D01*
X73781185Y-59856185D01*
X73860537Y-59759494D01*
X73919502Y-59649180D01*
X73955812Y-59529482D01*
X73968072Y-59405000D01*
X73965000Y-59290750D01*
X73806250Y-59132000D01*
X72657000Y-59132000D01*
X72403000Y-59132000D01*
X71253750Y-59132000D01*
X71095000Y-59290750D01*
X71091928Y-59405000D01*
X65530000Y-59405000D01*
X65530000Y-59154527D01*
X65559851Y-59145472D01*
X65713387Y-59063405D01*
X65847962Y-58952962D01*
X65958405Y-58818387D01*
X66040472Y-58664851D01*
X66091008Y-58498255D01*
X66108072Y-58325001D01*
X66108072Y-57799999D01*
X66091008Y-57626745D01*
X66040472Y-57460149D01*
X65958405Y-57306613D01*
X65847962Y-57172038D01*
X65821109Y-57150000D01*
X65847962Y-57127962D01*
X65955030Y-56997500D01*
X67225699Y-56997500D01*
X68494201Y-58266003D01*
X68517999Y-58295001D01*
X68546997Y-58318799D01*
X68633723Y-58389974D01*
X68714213Y-58432997D01*
X68765753Y-58460546D01*
X68909014Y-58504003D01*
X69020667Y-58515000D01*
X69020676Y-58515000D01*
X69057999Y-58518676D01*
X69095322Y-58515000D01*
X71100792Y-58515000D01*
X71091928Y-58605000D01*
X71095000Y-58719250D01*
X71253750Y-58878000D01*
X72403000Y-58878000D01*
X72403000Y-58858000D01*
X72657000Y-58858000D01*
X72657000Y-58878000D01*
X73806250Y-58878000D01*
X73965000Y-58719250D01*
X73968072Y-58605000D01*
X73955812Y-58480518D01*
X73919502Y-58360820D01*
X73889145Y-58304027D01*
X73904278Y-58275716D01*
X73951969Y-58118500D01*
X73968072Y-57955000D01*
X73968072Y-57555000D01*
X73951969Y-57391500D01*
X73904278Y-57234284D01*
X73848537Y-57130000D01*
X73904278Y-57025716D01*
X73951969Y-56868500D01*
X73968072Y-56705000D01*
X73968072Y-56305000D01*
X73951969Y-56141500D01*
X73904278Y-55984284D01*
X73848537Y-55880000D01*
X73904278Y-55775716D01*
X73951969Y-55618500D01*
X73968072Y-55455000D01*
X73968072Y-55055000D01*
X73951969Y-54891500D01*
X73904278Y-54734284D01*
X73848537Y-54630000D01*
X73904278Y-54525716D01*
X73951969Y-54368500D01*
X73968072Y-54205000D01*
X73968072Y-53805000D01*
X73951969Y-53641500D01*
X73904278Y-53484284D01*
X73848537Y-53380000D01*
X73904278Y-53275716D01*
X73951969Y-53118500D01*
X73968072Y-52955000D01*
X73968072Y-52555000D01*
X73951969Y-52391500D01*
X73904278Y-52234284D01*
X73826831Y-52089392D01*
X73722606Y-51962394D01*
X73595608Y-51858169D01*
X73450716Y-51780722D01*
X73293500Y-51733031D01*
X73130000Y-51716928D01*
X71930000Y-51716928D01*
X71766500Y-51733031D01*
X71609284Y-51780722D01*
X71464392Y-51858169D01*
X71449976Y-51870000D01*
X70139579Y-51870000D01*
X69211000Y-50941422D01*
X69211000Y-50150578D01*
X72229627Y-47131951D01*
X72217595Y-47146613D01*
X72135528Y-47300149D01*
X72084992Y-47466745D01*
X72067928Y-47639999D01*
X72067928Y-48165001D01*
X72084992Y-48338255D01*
X72135528Y-48504851D01*
X72217595Y-48658387D01*
X72328038Y-48792962D01*
X72462613Y-48903405D01*
X72616149Y-48985472D01*
X72782745Y-49036008D01*
X72955999Y-49053072D01*
X73365984Y-49053072D01*
X73359528Y-49065150D01*
X73308992Y-49231746D01*
X73291928Y-49405000D01*
X73291928Y-51005000D01*
X73308992Y-51178254D01*
X73359528Y-51344850D01*
X73441595Y-51498386D01*
X73552038Y-51632962D01*
X73686614Y-51743405D01*
X73840150Y-51825472D01*
X74006746Y-51876008D01*
X74180000Y-51893072D01*
X76680000Y-51893072D01*
X76853254Y-51876008D01*
X77019850Y-51825472D01*
X77173386Y-51743405D01*
X77307962Y-51632962D01*
X77418405Y-51498386D01*
X77500472Y-51344850D01*
X77551008Y-51178254D01*
X77568072Y-51005000D01*
X77568072Y-49405000D01*
X77551008Y-49231746D01*
X77500472Y-49065150D01*
X77418405Y-48911614D01*
X77307962Y-48777038D01*
X77213807Y-48699768D01*
X77235502Y-48659180D01*
X77271812Y-48539482D01*
X77284072Y-48415000D01*
X77281000Y-48213250D01*
X77122250Y-48054500D01*
X76073000Y-48054500D01*
X76073000Y-48074500D01*
X75819000Y-48074500D01*
X75819000Y-48054500D01*
X75799000Y-48054500D01*
X75799000Y-47800500D01*
X75819000Y-47800500D01*
X75819000Y-47780500D01*
X76073000Y-47780500D01*
X76073000Y-47800500D01*
X77122250Y-47800500D01*
X77281000Y-47641750D01*
X77284072Y-47440000D01*
X77271812Y-47315518D01*
X77235502Y-47195820D01*
X77176537Y-47085506D01*
X77097185Y-46988815D01*
X77019436Y-46925008D01*
X77025792Y-46919792D01*
X77135458Y-46786164D01*
X77216947Y-46633709D01*
X77267128Y-46468285D01*
X77284072Y-46296250D01*
X77284072Y-45808750D01*
X77267128Y-45636715D01*
X77216947Y-45471291D01*
X77135458Y-45318836D01*
X77025792Y-45185208D01*
X76934151Y-45110000D01*
X77437721Y-45110000D01*
X77834545Y-45148909D01*
G37*
%TD.AperFunction*%
D17*
X57479750Y-45230915D02*
X57154636Y-45448149D01*
X56878149Y-45724636D01*
X56660915Y-46049750D01*
X56511282Y-46410997D01*
X56435000Y-46794495D01*
X56435000Y-47185505D01*
X56511282Y-47569003D01*
X56660915Y-47930250D01*
X56878149Y-48255364D01*
X57154636Y-48531851D01*
X57479750Y-48749085D01*
X57840997Y-48898718D01*
X58224495Y-48975000D01*
X58615505Y-48975000D01*
X58999003Y-48898718D01*
X59360250Y-48749085D01*
X59685364Y-48531851D01*
X59961851Y-48255364D01*
X60179085Y-47930250D01*
X60328718Y-47569003D01*
X60405000Y-47185505D01*
X60405000Y-46794495D01*
X60328718Y-46410997D01*
X60179085Y-46049750D01*
X59961851Y-45724636D01*
X59685364Y-45448149D01*
X59360250Y-45230915D01*
X59068335Y-45110000D01*
X72421909Y-45110000D01*
X72328038Y-45187038D01*
X72323555Y-45192500D01*
X72075969Y-45192500D01*
X72032500Y-45188219D01*
X71989031Y-45192500D01*
X71989023Y-45192500D01*
X71859010Y-45205305D01*
X71692186Y-45255911D01*
X71538441Y-45338089D01*
X71437453Y-45420968D01*
X71437451Y-45420970D01*
X71403683Y-45448683D01*
X71375970Y-45482451D01*
X67959422Y-48899000D01*
X62260454Y-48899000D01*
X62212256Y-48866795D01*
X62023898Y-48788774D01*
X61823939Y-48749000D01*
X61620061Y-48749000D01*
X61420102Y-48788774D01*
X61231744Y-48866795D01*
X61062226Y-48980063D01*
X60918063Y-49124226D01*
X60804795Y-49293744D01*
X60726774Y-49482102D01*
X60687000Y-49682061D01*
X60687000Y-49885939D01*
X60726774Y-50085898D01*
X60804795Y-50274256D01*
X60918063Y-50443774D01*
X61062226Y-50587937D01*
X61231744Y-50701205D01*
X61420102Y-50779226D01*
X61620061Y-50819000D01*
X61823939Y-50819000D01*
X62023898Y-50779226D01*
X62212256Y-50701205D01*
X62260454Y-50669000D01*
X67441001Y-50669000D01*
X67441001Y-51264521D01*
X67436719Y-51308000D01*
X67453805Y-51481490D01*
X67504412Y-51648313D01*
X67586590Y-51802059D01*
X67669468Y-51903046D01*
X67669471Y-51903049D01*
X67697184Y-51936817D01*
X67730951Y-51964529D01*
X68442937Y-52676515D01*
X68364247Y-52634454D01*
X68220986Y-52590997D01*
X68109333Y-52580000D01*
X68109322Y-52580000D01*
X68072000Y-52576324D01*
X68034678Y-52580000D01*
X63814802Y-52580000D01*
X63174803Y-51940002D01*
X63151001Y-51910999D01*
X63035276Y-51816026D01*
X62903247Y-51745454D01*
X62759986Y-51701997D01*
X62648333Y-51691000D01*
X62648322Y-51691000D01*
X62611000Y-51687324D01*
X62573678Y-51691000D01*
X55790323Y-51691000D01*
X55753000Y-51687324D01*
X55715677Y-51691000D01*
X55715667Y-51691000D01*
X55604014Y-51701997D01*
X55460753Y-51745454D01*
X55328724Y-51816026D01*
X55212999Y-51910999D01*
X55189201Y-51939997D01*
X54549199Y-52580000D01*
X44458178Y-52580000D01*
X44333475Y-52393368D01*
X44126632Y-52186525D01*
X43952240Y-52070000D01*
X44126632Y-51953475D01*
X44333475Y-51746632D01*
X44374656Y-51685000D01*
X44660531Y-51685000D01*
X44704000Y-51689281D01*
X44747469Y-51685000D01*
X44747477Y-51685000D01*
X44877490Y-51672195D01*
X45044313Y-51621589D01*
X45198059Y-51539411D01*
X45332817Y-51428817D01*
X45360534Y-51395044D01*
X46188050Y-50567529D01*
X46221817Y-50539817D01*
X46332411Y-50405059D01*
X46414589Y-50251313D01*
X46465195Y-50084490D01*
X46478000Y-49954477D01*
X46478000Y-49954469D01*
X46482281Y-49911000D01*
X46478000Y-49867531D01*
X46478000Y-48499578D01*
X46745079Y-48232500D01*
X47177555Y-48232500D01*
X47182038Y-48237962D01*
X47208891Y-48260000D01*
X47182038Y-48282038D01*
X47071595Y-48416613D01*
X46989528Y-48570149D01*
X46938992Y-48736745D01*
X46921928Y-48909999D01*
X46921928Y-49435001D01*
X46938992Y-49608255D01*
X46989528Y-49774851D01*
X47071595Y-49928387D01*
X47182038Y-50062962D01*
X47316613Y-50173405D01*
X47470149Y-50255472D01*
X47636745Y-50306008D01*
X47809999Y-50323072D01*
X48710001Y-50323072D01*
X48883255Y-50306008D01*
X49049851Y-50255472D01*
X49203387Y-50173405D01*
X49337962Y-50062962D01*
X49448405Y-49928387D01*
X49487864Y-49854565D01*
X49510498Y-49929180D01*
X49569463Y-50039494D01*
X49648815Y-50136185D01*
X49745506Y-50215537D01*
X49855820Y-50274502D01*
X49975518Y-50310812D01*
X50100000Y-50323072D01*
X50514250Y-50320000D01*
X50673000Y-50161250D01*
X50673000Y-49324500D01*
X50927000Y-49324500D01*
X50927000Y-50161250D01*
X51085750Y-50320000D01*
X51500000Y-50323072D01*
X51624482Y-50310812D01*
X51744180Y-50274502D01*
X51854494Y-50215537D01*
X51951185Y-50136185D01*
X52030537Y-50039494D01*
X52089502Y-49929180D01*
X52125812Y-49809482D01*
X52138072Y-49685000D01*
X52135000Y-49483250D01*
X51976250Y-49324500D01*
X50927000Y-49324500D01*
X50673000Y-49324500D01*
X50653000Y-49324500D01*
X50653000Y-49070500D01*
X50673000Y-49070500D01*
X50673000Y-49050500D01*
X50927000Y-49050500D01*
X50927000Y-49070500D01*
X51976250Y-49070500D01*
X52135000Y-48911750D01*
X52138072Y-48710000D01*
X52125812Y-48585518D01*
X52089502Y-48465820D01*
X52030537Y-48355506D01*
X51951185Y-48258815D01*
X51873436Y-48195008D01*
X51879792Y-48189792D01*
X51989458Y-48056164D01*
X52070947Y-47903709D01*
X52121128Y-47738285D01*
X52138072Y-47566250D01*
X52138072Y-47078750D01*
X52121128Y-46906715D01*
X52070947Y-46741291D01*
X51989458Y-46588836D01*
X51879792Y-46455208D01*
X51746164Y-46345542D01*
X51593709Y-46264053D01*
X51428285Y-46213872D01*
X51256250Y-46196928D01*
X50343750Y-46196928D01*
X50171715Y-46213872D01*
X50006291Y-46264053D01*
X49853836Y-46345542D01*
X49720208Y-46455208D01*
X49610542Y-46588836D01*
X49606206Y-46596948D01*
X49540253Y-46616954D01*
X49479350Y-46649508D01*
X49448405Y-46591613D01*
X49337962Y-46457038D01*
X49203387Y-46346595D01*
X49049851Y-46264528D01*
X48883255Y-46213992D01*
X48710001Y-46196928D01*
X47809999Y-46196928D01*
X47636745Y-46213992D01*
X47470149Y-46264528D01*
X47316613Y-46346595D01*
X47182038Y-46457038D01*
X47177555Y-46462500D01*
X46421969Y-46462500D01*
X46378500Y-46458219D01*
X46335031Y-46462500D01*
X46335023Y-46462500D01*
X46205010Y-46475305D01*
X46038187Y-46525911D01*
X45897150Y-46601296D01*
X45884441Y-46608089D01*
X45783453Y-46690968D01*
X45783451Y-46690970D01*
X45749683Y-46718683D01*
X45721970Y-46752451D01*
X44997951Y-47476471D01*
X44964184Y-47504183D01*
X44936471Y-47537951D01*
X44936468Y-47537954D01*
X44853590Y-47638941D01*
X44771412Y-47792687D01*
X44720805Y-47959510D01*
X44703719Y-48133000D01*
X44708001Y-48176479D01*
X44708000Y-49544421D01*
X44359742Y-49892680D01*
X44333475Y-49853368D01*
X44126632Y-49646525D01*
X43883411Y-49484010D01*
X43613158Y-49372068D01*
X43326260Y-49315000D01*
X43033740Y-49315000D01*
X42746842Y-49372068D01*
X42476589Y-49484010D01*
X42233368Y-49646525D01*
X42046285Y-49833608D01*
X41978405Y-49706614D01*
X41867962Y-49572038D01*
X41733386Y-49461595D01*
X41579850Y-49379528D01*
X41413254Y-49328992D01*
X41240000Y-49311928D01*
X40040000Y-49311928D01*
X39866746Y-49328992D01*
X39700150Y-49379528D01*
X39546614Y-49461595D01*
X39412038Y-49572038D01*
X39301595Y-49706614D01*
X39219528Y-49860150D01*
X39168992Y-50026746D01*
X39151928Y-50200000D01*
X39151928Y-51400000D01*
X39168992Y-51573254D01*
X39219528Y-51739850D01*
X39301595Y-51893386D01*
X39412038Y-52027962D01*
X39546614Y-52138405D01*
X39673608Y-52206285D01*
X39486525Y-52393368D01*
X39324010Y-52636589D01*
X39212068Y-52906842D01*
X39155000Y-53193740D01*
X39155000Y-53486260D01*
X39212068Y-53773158D01*
X39324010Y-54043411D01*
X39486525Y-54286632D01*
X39693368Y-54493475D01*
X39867760Y-54610000D01*
X39693368Y-54726525D01*
X39486525Y-54933368D01*
X39324010Y-55176589D01*
X39212068Y-55446842D01*
X39155000Y-55733740D01*
X39155000Y-56026260D01*
X39212068Y-56313158D01*
X39324010Y-56583411D01*
X39486525Y-56826632D01*
X39693368Y-57033475D01*
X39867760Y-57150000D01*
X39693368Y-57266525D01*
X39486525Y-57473368D01*
X39324010Y-57716589D01*
X39212068Y-57986842D01*
X39155000Y-58273740D01*
X39155000Y-58566260D01*
X39212068Y-58853158D01*
X39324010Y-59123411D01*
X39486525Y-59366632D01*
X39693368Y-59573475D01*
X39867760Y-59690000D01*
X39693368Y-59806525D01*
X39486525Y-60013368D01*
X39324010Y-60256589D01*
X39212068Y-60526842D01*
X39155000Y-60813740D01*
X39155000Y-61106260D01*
X39212068Y-61393158D01*
X39324010Y-61663411D01*
X39486525Y-61906632D01*
X39693368Y-62113475D01*
X39936589Y-62275990D01*
X40206842Y-62387932D01*
X40493740Y-62445000D01*
X40786260Y-62445000D01*
X40979626Y-62406537D01*
X40914774Y-62563102D01*
X40875000Y-62763061D01*
X40875000Y-62966939D01*
X40914774Y-63166898D01*
X40992795Y-63355256D01*
X41106063Y-63524774D01*
X41250226Y-63668937D01*
X41419744Y-63782205D01*
X41608102Y-63860226D01*
X41808061Y-63900000D01*
X42011939Y-63900000D01*
X42211898Y-63860226D01*
X42400256Y-63782205D01*
X42569774Y-63668937D01*
X42613711Y-63625000D01*
X45555678Y-63625000D01*
X45593000Y-63628676D01*
X45630322Y-63625000D01*
X45630333Y-63625000D01*
X45741986Y-63614003D01*
X45885247Y-63570546D01*
X46017276Y-63499974D01*
X46133001Y-63405001D01*
X46156804Y-63375997D01*
X47748801Y-61784000D01*
X53895428Y-61784000D01*
X53898500Y-62198250D01*
X54057250Y-62357000D01*
X54894000Y-62357000D01*
X54894000Y-61307750D01*
X54735250Y-61149000D01*
X54533500Y-61145928D01*
X54409018Y-61158188D01*
X54289320Y-61194498D01*
X54179006Y-61253463D01*
X54082315Y-61332815D01*
X54002963Y-61429506D01*
X53943998Y-61539820D01*
X53907688Y-61659518D01*
X53895428Y-61784000D01*
X47748801Y-61784000D01*
X48705621Y-60827181D01*
X48726063Y-60857774D01*
X48870226Y-61001937D01*
X49039744Y-61115205D01*
X49228102Y-61193226D01*
X49428061Y-61233000D01*
X49631939Y-61233000D01*
X49831898Y-61193226D01*
X50020256Y-61115205D01*
X50189774Y-61001937D01*
X50233711Y-60958000D01*
X57874678Y-60958000D01*
X57912000Y-60961676D01*
X57949322Y-60958000D01*
X57949333Y-60958000D01*
X58060986Y-60947003D01*
X58204247Y-60903546D01*
X58336276Y-60832974D01*
X58452001Y-60738001D01*
X58475804Y-60708997D01*
X61274802Y-57910000D01*
X61326929Y-57910000D01*
X61326929Y-58325001D01*
X61343993Y-58498255D01*
X61394529Y-58664851D01*
X61476596Y-58818387D01*
X61587039Y-58952962D01*
X61721614Y-59063405D01*
X61875150Y-59145472D01*
X61905002Y-59154527D01*
X61905001Y-60083198D01*
X61718998Y-60269201D01*
X61690000Y-60292999D01*
X61666202Y-60321997D01*
X61666201Y-60321998D01*
X61595026Y-60408724D01*
X61524454Y-60540754D01*
X61480998Y-60684015D01*
X61466324Y-60833000D01*
X61470001Y-60870332D01*
X61470001Y-61974726D01*
X61389821Y-62017583D01*
X61160655Y-62205655D01*
X61106935Y-62271114D01*
X61048405Y-62161613D01*
X60937962Y-62027038D01*
X60803387Y-61916595D01*
X60649851Y-61834528D01*
X60483255Y-61783992D01*
X60310001Y-61766928D01*
X59069999Y-61766928D01*
X58896745Y-61783992D01*
X58730149Y-61834528D01*
X58576613Y-61916595D01*
X58442038Y-62027038D01*
X58331595Y-62161613D01*
X58249528Y-62315149D01*
X58198992Y-62481745D01*
X58181928Y-62654999D01*
X58181928Y-64345001D01*
X58198992Y-64518255D01*
X58249528Y-64684851D01*
X58331595Y-64838387D01*
X58442038Y-64972962D01*
X58576613Y-65083405D01*
X58730149Y-65165472D01*
X58896745Y-65216008D01*
X58928102Y-65219096D01*
X58359199Y-65788000D01*
X58087663Y-65788000D01*
X58093572Y-65728001D01*
X58093572Y-64827999D01*
X58076508Y-64654745D01*
X58025972Y-64488149D01*
X57943905Y-64334613D01*
X57833462Y-64200038D01*
X57703000Y-64092970D01*
X57703000Y-63613273D01*
X57763292Y-63563792D01*
X57872958Y-63430164D01*
X57954447Y-63277709D01*
X58004628Y-63112285D01*
X58021572Y-62940250D01*
X58021572Y-62027750D01*
X58004628Y-61855715D01*
X57954447Y-61690291D01*
X57872958Y-61537836D01*
X57763292Y-61404208D01*
X57629664Y-61294542D01*
X57477209Y-61213053D01*
X57311785Y-61162872D01*
X57139750Y-61145928D01*
X56652250Y-61145928D01*
X56480215Y-61162872D01*
X56314791Y-61213053D01*
X56162336Y-61294542D01*
X56028708Y-61404208D01*
X56023492Y-61410564D01*
X55959685Y-61332815D01*
X55862994Y-61253463D01*
X55752680Y-61194498D01*
X55632982Y-61158188D01*
X55508500Y-61145928D01*
X55306750Y-61149000D01*
X55148000Y-61307750D01*
X55148000Y-62357000D01*
X55168000Y-62357000D01*
X55168000Y-62611000D01*
X55148000Y-62611000D01*
X55148000Y-63660250D01*
X55306750Y-63819000D01*
X55508500Y-63822072D01*
X55632982Y-63809812D01*
X55752680Y-63773502D01*
X55862994Y-63714537D01*
X55959685Y-63635185D01*
X56023492Y-63557436D01*
X56028708Y-63563792D01*
X56162336Y-63673458D01*
X56183001Y-63684503D01*
X56183000Y-64092970D01*
X56052538Y-64200038D01*
X56030500Y-64226891D01*
X56008462Y-64200038D01*
X55873887Y-64089595D01*
X55720351Y-64007528D01*
X55553755Y-63956992D01*
X55380501Y-63939928D01*
X54855499Y-63939928D01*
X54682245Y-63956992D01*
X54515649Y-64007528D01*
X54362113Y-64089595D01*
X54227538Y-64200038D01*
X54117095Y-64334613D01*
X54035028Y-64488149D01*
X53984492Y-64654745D01*
X53967428Y-64827999D01*
X53967428Y-65728001D01*
X53984492Y-65901255D01*
X54035028Y-66067851D01*
X54117095Y-66221387D01*
X54227538Y-66355962D01*
X54362113Y-66466405D01*
X54378809Y-66475329D01*
X54412454Y-66586246D01*
X54446531Y-66650000D01*
X51194335Y-66650000D01*
X51486250Y-66529085D01*
X51811364Y-66311851D01*
X52087851Y-66035364D01*
X52305085Y-65710250D01*
X52454718Y-65349003D01*
X52531000Y-64965505D01*
X52531000Y-64574495D01*
X52454718Y-64190997D01*
X52305085Y-63829750D01*
X52087851Y-63504636D01*
X51811364Y-63228149D01*
X51745291Y-63184000D01*
X53895428Y-63184000D01*
X53907688Y-63308482D01*
X53943998Y-63428180D01*
X54002963Y-63538494D01*
X54082315Y-63635185D01*
X54179006Y-63714537D01*
X54289320Y-63773502D01*
X54409018Y-63809812D01*
X54533500Y-63822072D01*
X54735250Y-63819000D01*
X54894000Y-63660250D01*
X54894000Y-62611000D01*
X54057250Y-62611000D01*
X53898500Y-62769750D01*
X53895428Y-63184000D01*
X51745291Y-63184000D01*
X51486250Y-63010915D01*
X51125003Y-62861282D01*
X50741505Y-62785000D01*
X50350495Y-62785000D01*
X49966997Y-62861282D01*
X49605750Y-63010915D01*
X49280636Y-63228149D01*
X49004149Y-63504636D01*
X48786915Y-63829750D01*
X48637282Y-64190997D01*
X48561000Y-64574495D01*
X48561000Y-64965505D01*
X48637282Y-65349003D01*
X48786915Y-65710250D01*
X49004149Y-66035364D01*
X49280636Y-66311851D01*
X49605750Y-66529085D01*
X49897665Y-66650000D01*
X38132279Y-66650000D01*
X37735455Y-66611091D01*
X37384794Y-66505220D01*
X37061377Y-66333257D01*
X36777518Y-66101748D01*
X36544035Y-65819514D01*
X36369816Y-65497304D01*
X36261498Y-65147385D01*
X36220000Y-64752557D01*
X36220000Y-47022279D01*
X36258909Y-46625455D01*
X36364780Y-46274792D01*
X36536744Y-45951375D01*
X36768254Y-45667516D01*
X37050486Y-45434035D01*
X37372695Y-45259817D01*
X37722614Y-45151498D01*
X38117443Y-45110000D01*
X57771665Y-45110000D01*
X57479750Y-45230915D01*
%TA.AperFunction,Conductor*%
D18*
G36*
X57479750Y-45230915D02*
G01*
X57154636Y-45448149D01*
X56878149Y-45724636D01*
X56660915Y-46049750D01*
X56511282Y-46410997D01*
X56435000Y-46794495D01*
X56435000Y-47185505D01*
X56511282Y-47569003D01*
X56660915Y-47930250D01*
X56878149Y-48255364D01*
X57154636Y-48531851D01*
X57479750Y-48749085D01*
X57840997Y-48898718D01*
X58224495Y-48975000D01*
X58615505Y-48975000D01*
X58999003Y-48898718D01*
X59360250Y-48749085D01*
X59685364Y-48531851D01*
X59961851Y-48255364D01*
X60179085Y-47930250D01*
X60328718Y-47569003D01*
X60405000Y-47185505D01*
X60405000Y-46794495D01*
X60328718Y-46410997D01*
X60179085Y-46049750D01*
X59961851Y-45724636D01*
X59685364Y-45448149D01*
X59360250Y-45230915D01*
X59068335Y-45110000D01*
X72421909Y-45110000D01*
X72328038Y-45187038D01*
X72323555Y-45192500D01*
X72075969Y-45192500D01*
X72032500Y-45188219D01*
X71989031Y-45192500D01*
X71989023Y-45192500D01*
X71859010Y-45205305D01*
X71692186Y-45255911D01*
X71538441Y-45338089D01*
X71437453Y-45420968D01*
X71437451Y-45420970D01*
X71403683Y-45448683D01*
X71375970Y-45482451D01*
X67959422Y-48899000D01*
X62260454Y-48899000D01*
X62212256Y-48866795D01*
X62023898Y-48788774D01*
X61823939Y-48749000D01*
X61620061Y-48749000D01*
X61420102Y-48788774D01*
X61231744Y-48866795D01*
X61062226Y-48980063D01*
X60918063Y-49124226D01*
X60804795Y-49293744D01*
X60726774Y-49482102D01*
X60687000Y-49682061D01*
X60687000Y-49885939D01*
X60726774Y-50085898D01*
X60804795Y-50274256D01*
X60918063Y-50443774D01*
X61062226Y-50587937D01*
X61231744Y-50701205D01*
X61420102Y-50779226D01*
X61620061Y-50819000D01*
X61823939Y-50819000D01*
X62023898Y-50779226D01*
X62212256Y-50701205D01*
X62260454Y-50669000D01*
X67441001Y-50669000D01*
X67441001Y-51264521D01*
X67436719Y-51308000D01*
X67453805Y-51481490D01*
X67504412Y-51648313D01*
X67586590Y-51802059D01*
X67669468Y-51903046D01*
X67669471Y-51903049D01*
X67697184Y-51936817D01*
X67730951Y-51964529D01*
X68442937Y-52676515D01*
X68364247Y-52634454D01*
X68220986Y-52590997D01*
X68109333Y-52580000D01*
X68109322Y-52580000D01*
X68072000Y-52576324D01*
X68034678Y-52580000D01*
X63814802Y-52580000D01*
X63174803Y-51940002D01*
X63151001Y-51910999D01*
X63035276Y-51816026D01*
X62903247Y-51745454D01*
X62759986Y-51701997D01*
X62648333Y-51691000D01*
X62648322Y-51691000D01*
X62611000Y-51687324D01*
X62573678Y-51691000D01*
X55790323Y-51691000D01*
X55753000Y-51687324D01*
X55715677Y-51691000D01*
X55715667Y-51691000D01*
X55604014Y-51701997D01*
X55460753Y-51745454D01*
X55328724Y-51816026D01*
X55212999Y-51910999D01*
X55189201Y-51939997D01*
X54549199Y-52580000D01*
X44458178Y-52580000D01*
X44333475Y-52393368D01*
X44126632Y-52186525D01*
X43952240Y-52070000D01*
X44126632Y-51953475D01*
X44333475Y-51746632D01*
X44374656Y-51685000D01*
X44660531Y-51685000D01*
X44704000Y-51689281D01*
X44747469Y-51685000D01*
X44747477Y-51685000D01*
X44877490Y-51672195D01*
X45044313Y-51621589D01*
X45198059Y-51539411D01*
X45332817Y-51428817D01*
X45360534Y-51395044D01*
X46188050Y-50567529D01*
X46221817Y-50539817D01*
X46332411Y-50405059D01*
X46414589Y-50251313D01*
X46465195Y-50084490D01*
X46478000Y-49954477D01*
X46478000Y-49954469D01*
X46482281Y-49911000D01*
X46478000Y-49867531D01*
X46478000Y-48499578D01*
X46745079Y-48232500D01*
X47177555Y-48232500D01*
X47182038Y-48237962D01*
X47208891Y-48260000D01*
X47182038Y-48282038D01*
X47071595Y-48416613D01*
X46989528Y-48570149D01*
X46938992Y-48736745D01*
X46921928Y-48909999D01*
X46921928Y-49435001D01*
X46938992Y-49608255D01*
X46989528Y-49774851D01*
X47071595Y-49928387D01*
X47182038Y-50062962D01*
X47316613Y-50173405D01*
X47470149Y-50255472D01*
X47636745Y-50306008D01*
X47809999Y-50323072D01*
X48710001Y-50323072D01*
X48883255Y-50306008D01*
X49049851Y-50255472D01*
X49203387Y-50173405D01*
X49337962Y-50062962D01*
X49448405Y-49928387D01*
X49487864Y-49854565D01*
X49510498Y-49929180D01*
X49569463Y-50039494D01*
X49648815Y-50136185D01*
X49745506Y-50215537D01*
X49855820Y-50274502D01*
X49975518Y-50310812D01*
X50100000Y-50323072D01*
X50514250Y-50320000D01*
X50673000Y-50161250D01*
X50673000Y-49324500D01*
X50927000Y-49324500D01*
X50927000Y-50161250D01*
X51085750Y-50320000D01*
X51500000Y-50323072D01*
X51624482Y-50310812D01*
X51744180Y-50274502D01*
X51854494Y-50215537D01*
X51951185Y-50136185D01*
X52030537Y-50039494D01*
X52089502Y-49929180D01*
X52125812Y-49809482D01*
X52138072Y-49685000D01*
X52135000Y-49483250D01*
X51976250Y-49324500D01*
X50927000Y-49324500D01*
X50673000Y-49324500D01*
X50653000Y-49324500D01*
X50653000Y-49070500D01*
X50673000Y-49070500D01*
X50673000Y-49050500D01*
X50927000Y-49050500D01*
X50927000Y-49070500D01*
X51976250Y-49070500D01*
X52135000Y-48911750D01*
X52138072Y-48710000D01*
X52125812Y-48585518D01*
X52089502Y-48465820D01*
X52030537Y-48355506D01*
X51951185Y-48258815D01*
X51873436Y-48195008D01*
X51879792Y-48189792D01*
X51989458Y-48056164D01*
X52070947Y-47903709D01*
X52121128Y-47738285D01*
X52138072Y-47566250D01*
X52138072Y-47078750D01*
X52121128Y-46906715D01*
X52070947Y-46741291D01*
X51989458Y-46588836D01*
X51879792Y-46455208D01*
X51746164Y-46345542D01*
X51593709Y-46264053D01*
X51428285Y-46213872D01*
X51256250Y-46196928D01*
X50343750Y-46196928D01*
X50171715Y-46213872D01*
X50006291Y-46264053D01*
X49853836Y-46345542D01*
X49720208Y-46455208D01*
X49610542Y-46588836D01*
X49606206Y-46596948D01*
X49540253Y-46616954D01*
X49479350Y-46649508D01*
X49448405Y-46591613D01*
X49337962Y-46457038D01*
X49203387Y-46346595D01*
X49049851Y-46264528D01*
X48883255Y-46213992D01*
X48710001Y-46196928D01*
X47809999Y-46196928D01*
X47636745Y-46213992D01*
X47470149Y-46264528D01*
X47316613Y-46346595D01*
X47182038Y-46457038D01*
X47177555Y-46462500D01*
X46421969Y-46462500D01*
X46378500Y-46458219D01*
X46335031Y-46462500D01*
X46335023Y-46462500D01*
X46205010Y-46475305D01*
X46038187Y-46525911D01*
X45897150Y-46601296D01*
X45884441Y-46608089D01*
X45783453Y-46690968D01*
X45783451Y-46690970D01*
X45749683Y-46718683D01*
X45721970Y-46752451D01*
X44997951Y-47476471D01*
X44964184Y-47504183D01*
X44936471Y-47537951D01*
X44936468Y-47537954D01*
X44853590Y-47638941D01*
X44771412Y-47792687D01*
X44720805Y-47959510D01*
X44703719Y-48133000D01*
X44708001Y-48176479D01*
X44708000Y-49544421D01*
X44359742Y-49892680D01*
X44333475Y-49853368D01*
X44126632Y-49646525D01*
X43883411Y-49484010D01*
X43613158Y-49372068D01*
X43326260Y-49315000D01*
X43033740Y-49315000D01*
X42746842Y-49372068D01*
X42476589Y-49484010D01*
X42233368Y-49646525D01*
X42046285Y-49833608D01*
X41978405Y-49706614D01*
X41867962Y-49572038D01*
X41733386Y-49461595D01*
X41579850Y-49379528D01*
X41413254Y-49328992D01*
X41240000Y-49311928D01*
X40040000Y-49311928D01*
X39866746Y-49328992D01*
X39700150Y-49379528D01*
X39546614Y-49461595D01*
X39412038Y-49572038D01*
X39301595Y-49706614D01*
X39219528Y-49860150D01*
X39168992Y-50026746D01*
X39151928Y-50200000D01*
X39151928Y-51400000D01*
X39168992Y-51573254D01*
X39219528Y-51739850D01*
X39301595Y-51893386D01*
X39412038Y-52027962D01*
X39546614Y-52138405D01*
X39673608Y-52206285D01*
X39486525Y-52393368D01*
X39324010Y-52636589D01*
X39212068Y-52906842D01*
X39155000Y-53193740D01*
X39155000Y-53486260D01*
X39212068Y-53773158D01*
X39324010Y-54043411D01*
X39486525Y-54286632D01*
X39693368Y-54493475D01*
X39867760Y-54610000D01*
X39693368Y-54726525D01*
X39486525Y-54933368D01*
X39324010Y-55176589D01*
X39212068Y-55446842D01*
X39155000Y-55733740D01*
X39155000Y-56026260D01*
X39212068Y-56313158D01*
X39324010Y-56583411D01*
X39486525Y-56826632D01*
X39693368Y-57033475D01*
X39867760Y-57150000D01*
X39693368Y-57266525D01*
X39486525Y-57473368D01*
X39324010Y-57716589D01*
X39212068Y-57986842D01*
X39155000Y-58273740D01*
X39155000Y-58566260D01*
X39212068Y-58853158D01*
X39324010Y-59123411D01*
X39486525Y-59366632D01*
X39693368Y-59573475D01*
X39867760Y-59690000D01*
X39693368Y-59806525D01*
X39486525Y-60013368D01*
X39324010Y-60256589D01*
X39212068Y-60526842D01*
X39155000Y-60813740D01*
X39155000Y-61106260D01*
X39212068Y-61393158D01*
X39324010Y-61663411D01*
X39486525Y-61906632D01*
X39693368Y-62113475D01*
X39936589Y-62275990D01*
X40206842Y-62387932D01*
X40493740Y-62445000D01*
X40786260Y-62445000D01*
X40979626Y-62406537D01*
X40914774Y-62563102D01*
X40875000Y-62763061D01*
X40875000Y-62966939D01*
X40914774Y-63166898D01*
X40992795Y-63355256D01*
X41106063Y-63524774D01*
X41250226Y-63668937D01*
X41419744Y-63782205D01*
X41608102Y-63860226D01*
X41808061Y-63900000D01*
X42011939Y-63900000D01*
X42211898Y-63860226D01*
X42400256Y-63782205D01*
X42569774Y-63668937D01*
X42613711Y-63625000D01*
X45555678Y-63625000D01*
X45593000Y-63628676D01*
X45630322Y-63625000D01*
X45630333Y-63625000D01*
X45741986Y-63614003D01*
X45885247Y-63570546D01*
X46017276Y-63499974D01*
X46133001Y-63405001D01*
X46156804Y-63375997D01*
X47748801Y-61784000D01*
X53895428Y-61784000D01*
X53898500Y-62198250D01*
X54057250Y-62357000D01*
X54894000Y-62357000D01*
X54894000Y-61307750D01*
X54735250Y-61149000D01*
X54533500Y-61145928D01*
X54409018Y-61158188D01*
X54289320Y-61194498D01*
X54179006Y-61253463D01*
X54082315Y-61332815D01*
X54002963Y-61429506D01*
X53943998Y-61539820D01*
X53907688Y-61659518D01*
X53895428Y-61784000D01*
X47748801Y-61784000D01*
X48705621Y-60827181D01*
X48726063Y-60857774D01*
X48870226Y-61001937D01*
X49039744Y-61115205D01*
X49228102Y-61193226D01*
X49428061Y-61233000D01*
X49631939Y-61233000D01*
X49831898Y-61193226D01*
X50020256Y-61115205D01*
X50189774Y-61001937D01*
X50233711Y-60958000D01*
X57874678Y-60958000D01*
X57912000Y-60961676D01*
X57949322Y-60958000D01*
X57949333Y-60958000D01*
X58060986Y-60947003D01*
X58204247Y-60903546D01*
X58336276Y-60832974D01*
X58452001Y-60738001D01*
X58475804Y-60708997D01*
X61274802Y-57910000D01*
X61326929Y-57910000D01*
X61326929Y-58325001D01*
X61343993Y-58498255D01*
X61394529Y-58664851D01*
X61476596Y-58818387D01*
X61587039Y-58952962D01*
X61721614Y-59063405D01*
X61875150Y-59145472D01*
X61905002Y-59154527D01*
X61905001Y-60083198D01*
X61718998Y-60269201D01*
X61690000Y-60292999D01*
X61666202Y-60321997D01*
X61666201Y-60321998D01*
X61595026Y-60408724D01*
X61524454Y-60540754D01*
X61480998Y-60684015D01*
X61466324Y-60833000D01*
X61470001Y-60870332D01*
X61470001Y-61974726D01*
X61389821Y-62017583D01*
X61160655Y-62205655D01*
X61106935Y-62271114D01*
X61048405Y-62161613D01*
X60937962Y-62027038D01*
X60803387Y-61916595D01*
X60649851Y-61834528D01*
X60483255Y-61783992D01*
X60310001Y-61766928D01*
X59069999Y-61766928D01*
X58896745Y-61783992D01*
X58730149Y-61834528D01*
X58576613Y-61916595D01*
X58442038Y-62027038D01*
X58331595Y-62161613D01*
X58249528Y-62315149D01*
X58198992Y-62481745D01*
X58181928Y-62654999D01*
X58181928Y-64345001D01*
X58198992Y-64518255D01*
X58249528Y-64684851D01*
X58331595Y-64838387D01*
X58442038Y-64972962D01*
X58576613Y-65083405D01*
X58730149Y-65165472D01*
X58896745Y-65216008D01*
X58928102Y-65219096D01*
X58359199Y-65788000D01*
X58087663Y-65788000D01*
X58093572Y-65728001D01*
X58093572Y-64827999D01*
X58076508Y-64654745D01*
X58025972Y-64488149D01*
X57943905Y-64334613D01*
X57833462Y-64200038D01*
X57703000Y-64092970D01*
X57703000Y-63613273D01*
X57763292Y-63563792D01*
X57872958Y-63430164D01*
X57954447Y-63277709D01*
X58004628Y-63112285D01*
X58021572Y-62940250D01*
X58021572Y-62027750D01*
X58004628Y-61855715D01*
X57954447Y-61690291D01*
X57872958Y-61537836D01*
X57763292Y-61404208D01*
X57629664Y-61294542D01*
X57477209Y-61213053D01*
X57311785Y-61162872D01*
X57139750Y-61145928D01*
X56652250Y-61145928D01*
X56480215Y-61162872D01*
X56314791Y-61213053D01*
X56162336Y-61294542D01*
X56028708Y-61404208D01*
X56023492Y-61410564D01*
X55959685Y-61332815D01*
X55862994Y-61253463D01*
X55752680Y-61194498D01*
X55632982Y-61158188D01*
X55508500Y-61145928D01*
X55306750Y-61149000D01*
X55148000Y-61307750D01*
X55148000Y-62357000D01*
X55168000Y-62357000D01*
X55168000Y-62611000D01*
X55148000Y-62611000D01*
X55148000Y-63660250D01*
X55306750Y-63819000D01*
X55508500Y-63822072D01*
X55632982Y-63809812D01*
X55752680Y-63773502D01*
X55862994Y-63714537D01*
X55959685Y-63635185D01*
X56023492Y-63557436D01*
X56028708Y-63563792D01*
X56162336Y-63673458D01*
X56183001Y-63684503D01*
X56183000Y-64092970D01*
X56052538Y-64200038D01*
X56030500Y-64226891D01*
X56008462Y-64200038D01*
X55873887Y-64089595D01*
X55720351Y-64007528D01*
X55553755Y-63956992D01*
X55380501Y-63939928D01*
X54855499Y-63939928D01*
X54682245Y-63956992D01*
X54515649Y-64007528D01*
X54362113Y-64089595D01*
X54227538Y-64200038D01*
X54117095Y-64334613D01*
X54035028Y-64488149D01*
X53984492Y-64654745D01*
X53967428Y-64827999D01*
X53967428Y-65728001D01*
X53984492Y-65901255D01*
X54035028Y-66067851D01*
X54117095Y-66221387D01*
X54227538Y-66355962D01*
X54362113Y-66466405D01*
X54378809Y-66475329D01*
X54412454Y-66586246D01*
X54446531Y-66650000D01*
X51194335Y-66650000D01*
X51486250Y-66529085D01*
X51811364Y-66311851D01*
X52087851Y-66035364D01*
X52305085Y-65710250D01*
X52454718Y-65349003D01*
X52531000Y-64965505D01*
X52531000Y-64574495D01*
X52454718Y-64190997D01*
X52305085Y-63829750D01*
X52087851Y-63504636D01*
X51811364Y-63228149D01*
X51745291Y-63184000D01*
X53895428Y-63184000D01*
X53907688Y-63308482D01*
X53943998Y-63428180D01*
X54002963Y-63538494D01*
X54082315Y-63635185D01*
X54179006Y-63714537D01*
X54289320Y-63773502D01*
X54409018Y-63809812D01*
X54533500Y-63822072D01*
X54735250Y-63819000D01*
X54894000Y-63660250D01*
X54894000Y-62611000D01*
X54057250Y-62611000D01*
X53898500Y-62769750D01*
X53895428Y-63184000D01*
X51745291Y-63184000D01*
X51486250Y-63010915D01*
X51125003Y-62861282D01*
X50741505Y-62785000D01*
X50350495Y-62785000D01*
X49966997Y-62861282D01*
X49605750Y-63010915D01*
X49280636Y-63228149D01*
X49004149Y-63504636D01*
X48786915Y-63829750D01*
X48637282Y-64190997D01*
X48561000Y-64574495D01*
X48561000Y-64965505D01*
X48637282Y-65349003D01*
X48786915Y-65710250D01*
X49004149Y-66035364D01*
X49280636Y-66311851D01*
X49605750Y-66529085D01*
X49897665Y-66650000D01*
X38132279Y-66650000D01*
X37735455Y-66611091D01*
X37384794Y-66505220D01*
X37061377Y-66333257D01*
X36777518Y-66101748D01*
X36544035Y-65819514D01*
X36369816Y-65497304D01*
X36261498Y-65147385D01*
X36220000Y-64752557D01*
X36220000Y-47022279D01*
X36258909Y-46625455D01*
X36364780Y-46274792D01*
X36536744Y-45951375D01*
X36768254Y-45667516D01*
X37050486Y-45434035D01*
X37372695Y-45259817D01*
X37722614Y-45151498D01*
X38117443Y-45110000D01*
X57771665Y-45110000D01*
X57479750Y-45230915D01*
G37*
%TD.AperFunction*%
D17*
X46821928Y-55410000D02*
X46834188Y-55534482D01*
X46870498Y-55654180D01*
X46929463Y-55764494D01*
X47008815Y-55861185D01*
X47105506Y-55940537D01*
X47215820Y-55999502D01*
X47335518Y-56035812D01*
X47343961Y-56036643D01*
X47145363Y-56235241D01*
X46988320Y-56470273D01*
X46880147Y-56731426D01*
X46825000Y-57008665D01*
X46825000Y-57291335D01*
X46880147Y-57568574D01*
X46988320Y-57829727D01*
X47145363Y-58064759D01*
X47345241Y-58264637D01*
X47580273Y-58421680D01*
X47841426Y-58529853D01*
X48118665Y-58585000D01*
X48401335Y-58585000D01*
X48678574Y-58529853D01*
X48939727Y-58421680D01*
X49174759Y-58264637D01*
X49374637Y-58064759D01*
X49531680Y-57829727D01*
X49639853Y-57568574D01*
X49695000Y-57291335D01*
X49695000Y-57008665D01*
X49639853Y-56731426D01*
X49531680Y-56470273D01*
X49374637Y-56235241D01*
X49176039Y-56036643D01*
X49184482Y-56035812D01*
X49304180Y-55999502D01*
X49414494Y-55940537D01*
X49511185Y-55861185D01*
X49590537Y-55764494D01*
X49649502Y-55654180D01*
X49685812Y-55534482D01*
X49698072Y-55410000D01*
X49698072Y-54100000D01*
X54538017Y-54100000D01*
X54500147Y-54191426D01*
X54445000Y-54468665D01*
X54445000Y-54751335D01*
X54500147Y-55028574D01*
X54608320Y-55289727D01*
X54765363Y-55524759D01*
X54965241Y-55724637D01*
X55197759Y-55880000D01*
X54965241Y-56035363D01*
X54765363Y-56235241D01*
X54608320Y-56470273D01*
X54500147Y-56731426D01*
X54445000Y-57008665D01*
X54445000Y-57291335D01*
X54500147Y-57568574D01*
X54608320Y-57829727D01*
X54765363Y-58064759D01*
X54965241Y-58264637D01*
X55200273Y-58421680D01*
X55201046Y-58422000D01*
X49313333Y-58422000D01*
X49276000Y-58418323D01*
X49238667Y-58422000D01*
X49127014Y-58432997D01*
X48983753Y-58476454D01*
X48851724Y-58547026D01*
X48735999Y-58641999D01*
X48712201Y-58670997D01*
X45278199Y-62105000D01*
X43992448Y-62105000D01*
X44028792Y-61988397D01*
X43180000Y-61139605D01*
X43165858Y-61153748D01*
X42986253Y-60974143D01*
X43000395Y-60960000D01*
X43359605Y-60960000D01*
X44208397Y-61808792D01*
X44457472Y-61731157D01*
X44583371Y-61467117D01*
X44655339Y-61183589D01*
X44670611Y-60891469D01*
X44628599Y-60601981D01*
X44530919Y-60326253D01*
X44457472Y-60188843D01*
X44208397Y-60111208D01*
X43359605Y-60960000D01*
X43000395Y-60960000D01*
X42151603Y-60111208D01*
X41909311Y-60186729D01*
X41793475Y-60013368D01*
X41586632Y-59806525D01*
X41412240Y-59690000D01*
X41586632Y-59573475D01*
X41793475Y-59366632D01*
X41910000Y-59192240D01*
X42026525Y-59366632D01*
X42233368Y-59573475D01*
X42406729Y-59689311D01*
X42331208Y-59931603D01*
X43180000Y-60780395D01*
X44028792Y-59931603D01*
X43953271Y-59689311D01*
X44126632Y-59573475D01*
X44333475Y-59366632D01*
X44495990Y-59123411D01*
X44607932Y-58853158D01*
X44665000Y-58566260D01*
X44665000Y-58273740D01*
X44607932Y-57986842D01*
X44495990Y-57716589D01*
X44333475Y-57473368D01*
X44126632Y-57266525D01*
X43952240Y-57150000D01*
X44126632Y-57033475D01*
X44333475Y-56826632D01*
X44495990Y-56583411D01*
X44607932Y-56313158D01*
X44665000Y-56026260D01*
X44665000Y-55733740D01*
X44607932Y-55446842D01*
X44495990Y-55176589D01*
X44333475Y-54933368D01*
X44126632Y-54726525D01*
X43952240Y-54610000D01*
X44126632Y-54493475D01*
X44333475Y-54286632D01*
X44458178Y-54100000D01*
X46821928Y-54100000D01*
X46821928Y-55410000D01*
%TA.AperFunction,Conductor*%
D18*
G36*
X46821928Y-55410000D02*
G01*
X46834188Y-55534482D01*
X46870498Y-55654180D01*
X46929463Y-55764494D01*
X47008815Y-55861185D01*
X47105506Y-55940537D01*
X47215820Y-55999502D01*
X47335518Y-56035812D01*
X47343961Y-56036643D01*
X47145363Y-56235241D01*
X46988320Y-56470273D01*
X46880147Y-56731426D01*
X46825000Y-57008665D01*
X46825000Y-57291335D01*
X46880147Y-57568574D01*
X46988320Y-57829727D01*
X47145363Y-58064759D01*
X47345241Y-58264637D01*
X47580273Y-58421680D01*
X47841426Y-58529853D01*
X48118665Y-58585000D01*
X48401335Y-58585000D01*
X48678574Y-58529853D01*
X48939727Y-58421680D01*
X49174759Y-58264637D01*
X49374637Y-58064759D01*
X49531680Y-57829727D01*
X49639853Y-57568574D01*
X49695000Y-57291335D01*
X49695000Y-57008665D01*
X49639853Y-56731426D01*
X49531680Y-56470273D01*
X49374637Y-56235241D01*
X49176039Y-56036643D01*
X49184482Y-56035812D01*
X49304180Y-55999502D01*
X49414494Y-55940537D01*
X49511185Y-55861185D01*
X49590537Y-55764494D01*
X49649502Y-55654180D01*
X49685812Y-55534482D01*
X49698072Y-55410000D01*
X49698072Y-54100000D01*
X54538017Y-54100000D01*
X54500147Y-54191426D01*
X54445000Y-54468665D01*
X54445000Y-54751335D01*
X54500147Y-55028574D01*
X54608320Y-55289727D01*
X54765363Y-55524759D01*
X54965241Y-55724637D01*
X55197759Y-55880000D01*
X54965241Y-56035363D01*
X54765363Y-56235241D01*
X54608320Y-56470273D01*
X54500147Y-56731426D01*
X54445000Y-57008665D01*
X54445000Y-57291335D01*
X54500147Y-57568574D01*
X54608320Y-57829727D01*
X54765363Y-58064759D01*
X54965241Y-58264637D01*
X55200273Y-58421680D01*
X55201046Y-58422000D01*
X49313333Y-58422000D01*
X49276000Y-58418323D01*
X49238667Y-58422000D01*
X49127014Y-58432997D01*
X48983753Y-58476454D01*
X48851724Y-58547026D01*
X48735999Y-58641999D01*
X48712201Y-58670997D01*
X45278199Y-62105000D01*
X43992448Y-62105000D01*
X44028792Y-61988397D01*
X43180000Y-61139605D01*
X43165858Y-61153748D01*
X42986253Y-60974143D01*
X43000395Y-60960000D01*
X43359605Y-60960000D01*
X44208397Y-61808792D01*
X44457472Y-61731157D01*
X44583371Y-61467117D01*
X44655339Y-61183589D01*
X44670611Y-60891469D01*
X44628599Y-60601981D01*
X44530919Y-60326253D01*
X44457472Y-60188843D01*
X44208397Y-60111208D01*
X43359605Y-60960000D01*
X43000395Y-60960000D01*
X42151603Y-60111208D01*
X41909311Y-60186729D01*
X41793475Y-60013368D01*
X41586632Y-59806525D01*
X41412240Y-59690000D01*
X41586632Y-59573475D01*
X41793475Y-59366632D01*
X41910000Y-59192240D01*
X42026525Y-59366632D01*
X42233368Y-59573475D01*
X42406729Y-59689311D01*
X42331208Y-59931603D01*
X43180000Y-60780395D01*
X44028792Y-59931603D01*
X43953271Y-59689311D01*
X44126632Y-59573475D01*
X44333475Y-59366632D01*
X44495990Y-59123411D01*
X44607932Y-58853158D01*
X44665000Y-58566260D01*
X44665000Y-58273740D01*
X44607932Y-57986842D01*
X44495990Y-57716589D01*
X44333475Y-57473368D01*
X44126632Y-57266525D01*
X43952240Y-57150000D01*
X44126632Y-57033475D01*
X44333475Y-56826632D01*
X44495990Y-56583411D01*
X44607932Y-56313158D01*
X44665000Y-56026260D01*
X44665000Y-55733740D01*
X44607932Y-55446842D01*
X44495990Y-55176589D01*
X44333475Y-54933368D01*
X44126632Y-54726525D01*
X43952240Y-54610000D01*
X44126632Y-54493475D01*
X44333475Y-54286632D01*
X44458178Y-54100000D01*
X46821928Y-54100000D01*
X46821928Y-55410000D01*
G37*
%TD.AperFunction*%
%TD*%
M02*
