M48
; DRILL file {KiCad (5.1.8)-1} date 04/17/22 09:07:56
; FORMAT={-:-/ absolute / inch / decimal}
; #@! TF.CreationDate,2022-04-17T09:07:56+02:00
; #@! TF.GenerationSoftware,Kicad,Pcbnew,(5.1.8)-1
; #@! TF.FileFunction,Plated,1,2,PTH
FMAT,2
INCH
T1C0.0157
T2C0.0315
T3C0.0394
T4C0.0469
%
G90
G05
T1
X1.65Y-2.475
X1.85Y-2.01
X1.95Y-2.37
X2.05Y-2.41
X2.43Y-1.96
X2.65Y-2.01
X3.08Y-1.89
T2
X1.9Y-2.15
X1.9Y-2.25
X2.2Y-2.15
X2.2Y-2.25
T3
X1.6Y-2.0
X1.6Y-2.1
X1.6Y-2.2
X1.6Y-2.3
X1.6Y-2.4
X1.7Y-2.0
X1.7Y-2.1
X1.7Y-2.2
X1.7Y-2.3
X1.7Y-2.4
T4
X2.35Y-2.5
X2.45Y-2.5
X2.55Y-2.5
X2.65Y-2.5
T0
M30
